<mxfile host="app.diagrams.net" modified="2024-06-12T17:22:46.397Z" agent="Mozilla/5.0 (Windows NT 10.0; Win64; x64) AppleWebKit/537.36 (KHTML, like Gecko) Chrome/125.0.0.0 Safari/537.36" etag="7Yn-CoRtqlFQLcG1T9D8" version="24.5.3" type="device">
  <diagram name="Strona-1" id="rTChEdySiIOSzoFgZ6KD">
    <mxGraphModel dx="2491" dy="2054" grid="1" gridSize="10" guides="1" tooltips="1" connect="1" arrows="1" fold="1" page="1" pageScale="1" pageWidth="827" pageHeight="1169" math="0" shadow="0">
      <root>
        <mxCell id="0" />
        <mxCell id="1" parent="0" />
        <mxCell id="nJQdJeQsAaKc1UQKKqRn-1" value="" style="rounded=0;whiteSpace=wrap;html=1;" parent="1" vertex="1">
          <mxGeometry x="-230" y="-35" width="1050" height="585" as="geometry" />
        </mxCell>
        <mxCell id="LkNdAKvkeDDcNydDBcF2-20" value="FrotntEnd" style="outlineConnect=0;dashed=0;verticalLabelPosition=bottom;verticalAlign=top;align=center;html=1;shape=mxgraph.aws3.management_console;fillColor=#D2D3D3;gradientColor=none;" parent="1" vertex="1">
          <mxGeometry x="388.5" y="680" width="63" height="63" as="geometry" />
        </mxCell>
        <mxCell id="LkNdAKvkeDDcNydDBcF2-21" value="" style="endArrow=classic;html=1;rounded=0;exitX=0.5;exitY=0;exitDx=0;exitDy=0;exitPerimeter=0;entryX=0.508;entryY=0.991;entryDx=0;entryDy=0;entryPerimeter=0;" parent="1" source="LkNdAKvkeDDcNydDBcF2-20" target="Kle5qxPMQ7towkut4Vvx-3" edge="1">
          <mxGeometry width="50" height="50" relative="1" as="geometry">
            <mxPoint x="400" y="490" as="sourcePoint" />
            <mxPoint x="260" y="680" as="targetPoint" />
          </mxGeometry>
        </mxCell>
        <mxCell id="Kle5qxPMQ7towkut4Vvx-3" value="" style="image;aspect=fixed;html=1;points=[];align=center;fontSize=12;image=img/lib/azure2/networking/Application_Gateways.svg;" vertex="1" parent="1">
          <mxGeometry x="384.99999999999994" y="570" width="70" height="70" as="geometry" />
        </mxCell>
        <mxCell id="Kle5qxPMQ7towkut4Vvx-10" value="" style="rounded=0;whiteSpace=wrap;html=1;fillColor=#DBF8FF;strokeColor=#10739e;" vertex="1" parent="1">
          <mxGeometry x="-20" y="20" width="820" height="500" as="geometry" />
        </mxCell>
        <mxCell id="nJQdJeQsAaKc1UQKKqRn-54" value="" style="rounded=0;whiteSpace=wrap;html=1;fillColor=#D4E1F5;" parent="1" vertex="1">
          <mxGeometry x="50" y="30" width="740" height="130" as="geometry" />
        </mxCell>
        <mxCell id="nJQdJeQsAaKc1UQKKqRn-2" value="" style="verticalLabelPosition=bottom;html=1;verticalAlign=top;align=center;strokeColor=none;fillColor=#00BEF2;shape=mxgraph.azure.cloud;" parent="1" vertex="1">
          <mxGeometry x="780" y="-50" width="70" height="40" as="geometry" />
        </mxCell>
        <mxCell id="nJQdJeQsAaKc1UQKKqRn-3" value="Azure Cloud" style="text;html=1;align=center;verticalAlign=middle;whiteSpace=wrap;rounded=0;" parent="1" vertex="1">
          <mxGeometry x="265" y="-35" width="80" height="30" as="geometry" />
        </mxCell>
        <mxCell id="nJQdJeQsAaKc1UQKKqRn-30" value="Geolocation DB" style="text;html=1;align=center;verticalAlign=middle;whiteSpace=wrap;rounded=0;" parent="1" vertex="1">
          <mxGeometry x="595" y="60" width="90" height="30" as="geometry" />
        </mxCell>
        <mxCell id="nJQdJeQsAaKc1UQKKqRn-5" value="" style="rounded=0;whiteSpace=wrap;html=1;fillColor=#E5CCFF;" parent="1" vertex="1">
          <mxGeometry x="-10" y="200" width="800" height="300" as="geometry" />
        </mxCell>
        <mxCell id="nJQdJeQsAaKc1UQKKqRn-63" value="" style="edgeStyle=orthogonalEdgeStyle;rounded=0;orthogonalLoop=1;jettySize=auto;html=1;" parent="1" source="nJQdJeQsAaKc1UQKKqRn-7" target="nJQdJeQsAaKc1UQKKqRn-57" edge="1">
          <mxGeometry relative="1" as="geometry" />
        </mxCell>
        <mxCell id="nJQdJeQsAaKc1UQKKqRn-64" value="Uses" style="edgeLabel;html=1;align=center;verticalAlign=middle;resizable=0;points=[];" parent="nJQdJeQsAaKc1UQKKqRn-63" connectable="0" vertex="1">
          <mxGeometry x="0.1244" relative="1" as="geometry">
            <mxPoint as="offset" />
          </mxGeometry>
        </mxCell>
        <mxCell id="nJQdJeQsAaKc1UQKKqRn-65" value="" style="edgeStyle=orthogonalEdgeStyle;rounded=0;orthogonalLoop=1;jettySize=auto;html=1;" parent="1" source="nJQdJeQsAaKc1UQKKqRn-8" target="nJQdJeQsAaKc1UQKKqRn-59" edge="1">
          <mxGeometry relative="1" as="geometry" />
        </mxCell>
        <mxCell id="nJQdJeQsAaKc1UQKKqRn-66" value="Uses" style="edgeLabel;html=1;align=center;verticalAlign=middle;resizable=0;points=[];" parent="nJQdJeQsAaKc1UQKKqRn-65" connectable="0" vertex="1">
          <mxGeometry x="0.0889" relative="1" as="geometry">
            <mxPoint as="offset" />
          </mxGeometry>
        </mxCell>
        <mxCell id="nJQdJeQsAaKc1UQKKqRn-23" value="Devices DB" style="text;html=1;align=center;verticalAlign=middle;whiteSpace=wrap;rounded=0;" parent="1" vertex="1">
          <mxGeometry x="385" y="60" width="70" height="30" as="geometry" />
        </mxCell>
        <mxCell id="nJQdJeQsAaKc1UQKKqRn-44" value="Statistics DB" style="text;html=1;align=center;verticalAlign=middle;whiteSpace=wrap;rounded=0;" parent="1" vertex="1">
          <mxGeometry x="165" y="60" width="70" height="30" as="geometry" />
        </mxCell>
        <mxCell id="nJQdJeQsAaKc1UQKKqRn-56" value="Azure Database for MySQL - Flexible Server" style="text;html=1;align=center;verticalAlign=middle;whiteSpace=wrap;rounded=0;" parent="1" vertex="1">
          <mxGeometry x="297.5" y="30" width="245" height="30" as="geometry" />
        </mxCell>
        <mxCell id="nJQdJeQsAaKc1UQKKqRn-57" value="" style="image;sketch=0;aspect=fixed;html=1;points=[];align=center;fontSize=12;image=img/lib/mscae/Azure_Database_for_MySQL_servers.svg;" parent="1" vertex="1">
          <mxGeometry x="181" y="90" width="38" height="50" as="geometry" />
        </mxCell>
        <mxCell id="nJQdJeQsAaKc1UQKKqRn-59" value="" style="image;sketch=0;aspect=fixed;html=1;points=[];align=center;fontSize=12;image=img/lib/mscae/Azure_Database_for_MySQL_servers.svg;" parent="1" vertex="1">
          <mxGeometry x="401" y="90" width="38" height="50" as="geometry" />
        </mxCell>
        <mxCell id="nJQdJeQsAaKc1UQKKqRn-67" value="" style="image;sketch=0;aspect=fixed;html=1;points=[];align=center;fontSize=12;image=img/lib/mscae/Azure_Database_for_MySQL_servers.svg;" parent="1" vertex="1">
          <mxGeometry x="621" y="90" width="38" height="50" as="geometry" />
        </mxCell>
        <mxCell id="LkNdAKvkeDDcNydDBcF2-1" value="" style="fillColor=#999999;verticalLabelPosition=bottom;sketch=0;html=1;strokeColor=#ffffff;verticalAlign=top;align=center;points=[[0.145,0.145,0],[0.5,0,0],[0.855,0.145,0],[1,0.5,0],[0.855,0.855,0],[0.5,1,0],[0.145,0.855,0],[0,0.5,0]];pointerEvents=1;shape=mxgraph.cisco_safe.compositeIcon;bgIcon=ellipse;resIcon=mxgraph.cisco_safe.capability.load_balancer;" parent="1" vertex="1">
          <mxGeometry x="178.5" y="357" width="43" height="43" as="geometry" />
        </mxCell>
        <mxCell id="LkNdAKvkeDDcNydDBcF2-5" value="" style="fillColor=#999999;verticalLabelPosition=bottom;sketch=0;html=1;strokeColor=#ffffff;verticalAlign=top;align=center;points=[[0.145,0.145,0],[0.5,0,0],[0.855,0.145,0],[1,0.5,0],[0.855,0.855,0],[0.5,1,0],[0.145,0.855,0],[0,0.5,0]];pointerEvents=1;shape=mxgraph.cisco_safe.compositeIcon;bgIcon=ellipse;resIcon=mxgraph.cisco_safe.capability.load_balancer;" parent="1" vertex="1">
          <mxGeometry x="398.5" y="357" width="43" height="43" as="geometry" />
        </mxCell>
        <mxCell id="LkNdAKvkeDDcNydDBcF2-15" value="" style="fillColor=#999999;verticalLabelPosition=bottom;sketch=0;html=1;strokeColor=#ffffff;verticalAlign=top;align=center;points=[[0.145,0.145,0],[0.5,0,0],[0.855,0.145,0],[1,0.5,0],[0.855,0.855,0],[0.5,1,0],[0.145,0.855,0],[0,0.5,0]];pointerEvents=1;shape=mxgraph.cisco_safe.compositeIcon;bgIcon=ellipse;resIcon=mxgraph.cisco_safe.capability.load_balancer;" parent="1" vertex="1">
          <mxGeometry x="618.5" y="357" width="43" height="43" as="geometry" />
        </mxCell>
        <mxCell id="Kle5qxPMQ7towkut4Vvx-11" value="Azure VNET" style="text;html=1;align=center;verticalAlign=middle;whiteSpace=wrap;rounded=0;" vertex="1" parent="1">
          <mxGeometry x="380" y="-10" width="80" height="30" as="geometry" />
        </mxCell>
        <mxCell id="Kle5qxPMQ7towkut4Vvx-13" value="" style="rounded=0;whiteSpace=wrap;html=1;" vertex="1" parent="1">
          <mxGeometry x="-3" y="230" width="96" height="90" as="geometry" />
        </mxCell>
        <mxCell id="Kle5qxPMQ7towkut4Vvx-7" value="" style="image;aspect=fixed;html=1;points=[];align=center;fontSize=12;image=img/lib/azure2/management_governance/Metrics.svg;" vertex="1" parent="1">
          <mxGeometry x="3" y="260" width="44.67" height="48.4" as="geometry" />
        </mxCell>
        <mxCell id="Kle5qxPMQ7towkut4Vvx-6" value="" style="image;aspect=fixed;html=1;points=[];align=center;fontSize=12;image=img/lib/azure2/devops/Application_Insights.svg;" vertex="1" parent="1">
          <mxGeometry x="53" y="254.23000000000002" width="40" height="57.27" as="geometry" />
        </mxCell>
        <mxCell id="Kle5qxPMQ7towkut4Vvx-15" value="" style="rounded=0;whiteSpace=wrap;html=1;fillColor=#D4E1F5;" vertex="1" parent="1">
          <mxGeometry x="-210" y="340" width="140" height="130" as="geometry" />
        </mxCell>
        <mxCell id="Kle5qxPMQ7towkut4Vvx-14" value="Monitoring" style="text;html=1;align=center;verticalAlign=middle;whiteSpace=wrap;rounded=0;" vertex="1" parent="1">
          <mxGeometry x="-20" y="224.23" width="130" height="30" as="geometry" />
        </mxCell>
        <mxCell id="Kle5qxPMQ7towkut4Vvx-18" value="" style="rounded=0;whiteSpace=wrap;html=1;fillColor=#D4E1F5;" vertex="1" parent="1">
          <mxGeometry x="-210" y="157.75" width="140" height="132.25" as="geometry" />
        </mxCell>
        <mxCell id="Kle5qxPMQ7towkut4Vvx-19" value="" style="rounded=0;whiteSpace=wrap;html=1;fillColor=#D4E1F5;" vertex="1" parent="1">
          <mxGeometry x="-210" y="-2" width="140" height="132" as="geometry" />
        </mxCell>
        <mxCell id="Kle5qxPMQ7towkut4Vvx-1" value="" style="image;aspect=fixed;html=1;points=[];align=center;fontSize=12;image=img/lib/azure2/security/Key_Vaults.svg;" vertex="1" parent="1">
          <mxGeometry x="-183.75" y="25" width="80" height="80" as="geometry" />
        </mxCell>
        <mxCell id="Kle5qxPMQ7towkut4Vvx-2" value="" style="image;aspect=fixed;html=1;points=[];align=center;fontSize=12;image=img/lib/azure2/containers/Container_Registries.svg;" vertex="1" parent="1">
          <mxGeometry x="-183.75" y="195.87" width="78.03" height="70" as="geometry" />
        </mxCell>
        <mxCell id="Kle5qxPMQ7towkut4Vvx-12" value="" style="image;aspect=fixed;html=1;points=[];align=center;fontSize=12;image=img/lib/azure2/identity/Azure_Active_Directory.svg;" vertex="1" parent="1">
          <mxGeometry x="-183.75" y="371.5" width="87.51" height="80" as="geometry" />
        </mxCell>
        <mxCell id="Kle5qxPMQ7towkut4Vvx-20" value="Azure Key Vault" style="text;html=1;align=center;verticalAlign=middle;whiteSpace=wrap;rounded=0;" vertex="1" parent="1">
          <mxGeometry x="-205" y="-5" width="130" height="30" as="geometry" />
        </mxCell>
        <mxCell id="Kle5qxPMQ7towkut4Vvx-21" value="Azure Container Registry" style="text;html=1;align=center;verticalAlign=middle;whiteSpace=wrap;rounded=0;" vertex="1" parent="1">
          <mxGeometry x="-209.73" y="161.75" width="130" height="30" as="geometry" />
        </mxCell>
        <mxCell id="Kle5qxPMQ7towkut4Vvx-22" value="Azure AD (Entra)" style="text;html=1;align=center;verticalAlign=middle;whiteSpace=wrap;rounded=0;" vertex="1" parent="1">
          <mxGeometry x="-205" y="340" width="130" height="30" as="geometry" />
        </mxCell>
        <mxCell id="Kle5qxPMQ7towkut4Vvx-26" value="" style="rounded=0;whiteSpace=wrap;html=1;fillColor=#cce5ff;strokeColor=#36393d;" vertex="1" parent="1">
          <mxGeometry x="100" y="212.86" width="680" height="140" as="geometry" />
        </mxCell>
        <mxCell id="nJQdJeQsAaKc1UQKKqRn-7" value="" style="rounded=0;whiteSpace=wrap;html=1;" parent="1" vertex="1">
          <mxGeometry x="110" y="230" width="180" height="90" as="geometry" />
        </mxCell>
        <mxCell id="nJQdJeQsAaKc1UQKKqRn-8" value="" style="rounded=0;whiteSpace=wrap;html=1;" parent="1" vertex="1">
          <mxGeometry x="330" y="230" width="180" height="90" as="geometry" />
        </mxCell>
        <mxCell id="nJQdJeQsAaKc1UQKKqRn-9" value="" style="rounded=0;whiteSpace=wrap;html=1;" parent="1" vertex="1">
          <mxGeometry x="550" y="230" width="180" height="90" as="geometry" />
        </mxCell>
        <mxCell id="Kle5qxPMQ7towkut4Vvx-28" value="" style="edgeStyle=orthogonalEdgeStyle;rounded=0;orthogonalLoop=1;jettySize=auto;html=1;" edge="1" parent="1" source="nJQdJeQsAaKc1UQKKqRn-10" target="nJQdJeQsAaKc1UQKKqRn-59">
          <mxGeometry relative="1" as="geometry" />
        </mxCell>
        <mxCell id="nJQdJeQsAaKc1UQKKqRn-10" value="Devices Microservice" style="text;html=1;align=center;verticalAlign=middle;whiteSpace=wrap;rounded=0;" parent="1" vertex="1">
          <mxGeometry x="355" y="230" width="130" height="30" as="geometry" />
        </mxCell>
        <mxCell id="nJQdJeQsAaKc1UQKKqRn-11" value="Statistics&lt;span style=&quot;color: rgba(0, 0, 0, 0); font-family: monospace; font-size: 0px; text-align: start; text-wrap: nowrap;&quot;&gt;%3CmxGraphModel%3E%3Croot%3E%3CmxCell%20id%3D%220%22%2F%3E%3CmxCell%20id%3D%221%22%20parent%3D%220%22%2F%3E%3CmxCell%20id%3D%222%22%20value%3D%22Devices%20Microservice%22%20style%3D%22text%3Bhtml%3D1%3Balign%3Dcenter%3BverticalAlign%3Dmiddle%3BwhiteSpace%3Dwrap%3Brounded%3D0%3B%22%20vertex%3D%221%22%20parent%3D%221%22%3E%3CmxGeometry%20x%3D%22355%22%20y%3D%22120%22%20width%3D%22130%22%20height%3D%2230%22%20as%3D%22geometry%22%2F%3E%3C%2FmxCell%3E%3C%2Froot%3E%3C%2FmxGraphModel%3E&lt;/span&gt;&amp;nbsp;Micro&lt;span style=&quot;color: rgba(0, 0, 0, 0); font-family: monospace; font-size: 0px; text-align: start; text-wrap: nowrap;&quot;&gt;%3CmxGraphModel%3E%3Croot%3E%3CmxCell%20id%3D%220%22%2F%3E%3CmxCell%20id%3D%221%22%20parent%3D%220%22%2F%3E%3CmxCell%20id%3D%222%22%20value%3D%22Devices%20Microservice%22%20style%3D%22text%3Bhtml%3D1%3Balign%3Dcenter%3BverticalAlign%3Dmiddle%3BwhiteSpace%3Dwrap%3Brounded%3D0%3B%22%20vertex%3D%221%22%20parent%3D%221%22%3E%3CmxGeometry%20x%3D%22355%22%20y%3D%22120%22%20width%3D%22130%22%20height%3D%2230%22%20as%3D%22geometry%22%2F%3E%3C%2FmxCell%3E%3C%2Froot%3E%3C%2FmxGraphModel%3E&lt;/span&gt;service" style="text;html=1;align=center;verticalAlign=middle;whiteSpace=wrap;rounded=0;" parent="1" vertex="1">
          <mxGeometry x="135" y="230" width="130" height="30" as="geometry" />
        </mxCell>
        <mxCell id="nJQdJeQsAaKc1UQKKqRn-12" value="Geolocation&lt;span style=&quot;color: rgba(0, 0, 0, 0); font-family: monospace; font-size: 0px; text-align: start; text-wrap: nowrap;&quot;&gt;%3CmxGraphModel%3E%3Croot%3E%3CmxCell%20id%3D%220%22%2F%3E%3CmxCell%20id%3D%221%22%20parent%3D%220%22%2F%3E%3CmxCell%20id%3D%222%22%20value%3D%22Devices%20Microservice%22%20style%3D%22text%3Bhtml%3D1%3Balign%3Dcenter%3BverticalAlign%3Dmiddle%3BwhiteSpace%3Dwrap%3Brounded%3D0%3B%22%20vertex%3D%221%22%20parent%3D%221%22%3E%3CmxGeometry%20x%3D%22355%22%20y%3D%22120%22%20width%3D%22130%22%20height%3D%2230%22%20as%3D%22geometry%22%2F%3E%3C%2FmxCell%3E%3C%2Froot%3E%3C%2FmxGraphModel%3E&lt;/span&gt;&amp;nbsp;Micro&lt;span style=&quot;color: rgba(0, 0, 0, 0); font-family: monospace; font-size: 0px; text-align: start; text-wrap: nowrap;&quot;&gt;%3CmxGraphModel%3E%3Croot%3E%3CmxCell%20id%3D%220%22%2F%3E%3CmxCell%20id%3D%221%22%20parent%3D%220%22%2F%3E%3CmxCell%20id%3D%222%22%20value%3D%22Devices%20Microservice%22%20style%3D%22text%3Bhtml%3D1%3Balign%3Dcenter%3BverticalAlign%3Dmiddle%3BwhiteSpace%3Dwrap%3Brounded%3D0%3B%22%20vertex%3D%221%22%20parent%3D%221%22%3E%3CmxGeometry%20x%3D%22355%22%20y%3D%22120%22%20width%3D%22130%22%20height%3D%2230%22%20as%3D%22geometry%22%2F%3E%3C%2FmxCell%3E%3C%2Froot%3E%3C%2FmxGraphModel%3E&lt;/span&gt;service" style="text;html=1;align=center;verticalAlign=middle;whiteSpace=wrap;rounded=0;" parent="1" vertex="1">
          <mxGeometry x="567.5" y="230" width="145" height="30" as="geometry" />
        </mxCell>
        <mxCell id="nJQdJeQsAaKc1UQKKqRn-45" value="" style="aspect=fixed;sketch=0;html=1;dashed=0;whitespace=wrap;fillColor=#2875E2;strokeColor=#ffffff;points=[[0.005,0.63,0],[0.1,0.2,0],[0.9,0.2,0],[0.5,0,0],[0.995,0.63,0],[0.72,0.99,0],[0.5,1,0],[0.28,0.99,0]];shape=mxgraph.kubernetes.icon2;kubernetesLabel=1;prIcon=pod" parent="1" vertex="1">
          <mxGeometry x="125" y="270" width="40" height="38.4" as="geometry" />
        </mxCell>
        <mxCell id="nJQdJeQsAaKc1UQKKqRn-46" value="" style="aspect=fixed;sketch=0;html=1;dashed=0;whitespace=wrap;fillColor=#2875E2;strokeColor=#ffffff;points=[[0.005,0.63,0],[0.1,0.2,0],[0.9,0.2,0],[0.5,0,0],[0.995,0.63,0],[0.72,0.99,0],[0.5,1,0],[0.28,0.99,0]];shape=mxgraph.kubernetes.icon2;kubernetesLabel=1;prIcon=pod" parent="1" vertex="1">
          <mxGeometry x="345" y="270" width="40" height="38.4" as="geometry" />
        </mxCell>
        <mxCell id="nJQdJeQsAaKc1UQKKqRn-47" value="" style="aspect=fixed;sketch=0;html=1;dashed=0;whitespace=wrap;fillColor=#2875E2;strokeColor=#ffffff;points=[[0.005,0.63,0],[0.1,0.2,0],[0.9,0.2,0],[0.5,0,0],[0.995,0.63,0],[0.72,0.99,0],[0.5,1,0],[0.28,0.99,0]];shape=mxgraph.kubernetes.icon2;kubernetesLabel=1;prIcon=pod" parent="1" vertex="1">
          <mxGeometry x="567.5" y="270" width="40" height="38.4" as="geometry" />
        </mxCell>
        <mxCell id="nJQdJeQsAaKc1UQKKqRn-48" value="" style="aspect=fixed;sketch=0;html=1;dashed=0;whitespace=wrap;fillColor=#2875E2;strokeColor=#ffffff;points=[[0.005,0.63,0],[0.1,0.2,0],[0.9,0.2,0],[0.5,0,0],[0.995,0.63,0],[0.72,0.99,0],[0.5,1,0],[0.28,0.99,0]];shape=mxgraph.kubernetes.icon2;prIcon=hpa" parent="1" vertex="1">
          <mxGeometry x="178.75" y="270" width="40" height="38.4" as="geometry" />
        </mxCell>
        <mxCell id="nJQdJeQsAaKc1UQKKqRn-49" value="" style="aspect=fixed;sketch=0;html=1;dashed=0;whitespace=wrap;fillColor=#2875E2;strokeColor=#ffffff;points=[[0.005,0.63,0],[0.1,0.2,0],[0.9,0.2,0],[0.5,0,0],[0.995,0.63,0],[0.72,0.99,0],[0.5,1,0],[0.28,0.99,0]];shape=mxgraph.kubernetes.icon2;prIcon=hpa" parent="1" vertex="1">
          <mxGeometry x="400" y="270" width="40" height="38.4" as="geometry" />
        </mxCell>
        <mxCell id="nJQdJeQsAaKc1UQKKqRn-50" value="" style="aspect=fixed;sketch=0;html=1;dashed=0;whitespace=wrap;fillColor=#2875E2;strokeColor=#ffffff;points=[[0.005,0.63,0],[0.1,0.2,0],[0.9,0.2,0],[0.5,0,0],[0.995,0.63,0],[0.72,0.99,0],[0.5,1,0],[0.28,0.99,0]];shape=mxgraph.kubernetes.icon2;prIcon=hpa" parent="1" vertex="1">
          <mxGeometry x="620" y="270" width="40" height="38.4" as="geometry" />
        </mxCell>
        <mxCell id="nJQdJeQsAaKc1UQKKqRn-51" value="" style="aspect=fixed;sketch=0;html=1;dashed=0;whitespace=wrap;fillColor=#2875E2;strokeColor=#ffffff;points=[[0.005,0.63,0],[0.1,0.2,0],[0.9,0.2,0],[0.5,0,0],[0.995,0.63,0],[0.72,0.99,0],[0.5,1,0],[0.28,0.99,0]];shape=mxgraph.kubernetes.icon2;prIcon=deploy" parent="1" vertex="1">
          <mxGeometry x="235" y="270" width="40" height="38.4" as="geometry" />
        </mxCell>
        <mxCell id="nJQdJeQsAaKc1UQKKqRn-52" value="" style="aspect=fixed;sketch=0;html=1;dashed=0;whitespace=wrap;fillColor=#2875E2;strokeColor=#ffffff;points=[[0.005,0.63,0],[0.1,0.2,0],[0.9,0.2,0],[0.5,0,0],[0.995,0.63,0],[0.72,0.99,0],[0.5,1,0],[0.28,0.99,0]];shape=mxgraph.kubernetes.icon2;prIcon=deploy" parent="1" vertex="1">
          <mxGeometry x="455" y="270" width="40" height="38.4" as="geometry" />
        </mxCell>
        <mxCell id="nJQdJeQsAaKc1UQKKqRn-53" value="" style="aspect=fixed;sketch=0;html=1;dashed=0;whitespace=wrap;fillColor=#2875E2;strokeColor=#ffffff;points=[[0.005,0.63,0],[0.1,0.2,0],[0.9,0.2,0],[0.5,0,0],[0.995,0.63,0],[0.72,0.99,0],[0.5,1,0],[0.28,0.99,0]];shape=mxgraph.kubernetes.icon2;prIcon=deploy" parent="1" vertex="1">
          <mxGeometry x="672.5" y="270" width="40" height="38.4" as="geometry" />
        </mxCell>
        <mxCell id="nJQdJeQsAaKc1UQKKqRn-4" value="" style="image;aspect=fixed;html=1;points=[];align=center;fontSize=12;image=img/lib/azure2/compute/Kubernetes_Services.svg;" parent="1" vertex="1">
          <mxGeometry x="760" y="185.88" width="50" height="44.12" as="geometry" />
        </mxCell>
        <mxCell id="LkNdAKvkeDDcNydDBcF2-4" value="" style="endArrow=classic;html=1;rounded=0;entryX=0.5;entryY=1;entryDx=0;entryDy=0;exitX=0.5;exitY=0;exitDx=0;exitDy=0;exitPerimeter=0;" parent="1" source="LkNdAKvkeDDcNydDBcF2-1" target="nJQdJeQsAaKc1UQKKqRn-7" edge="1">
          <mxGeometry width="50" height="50" relative="1" as="geometry">
            <mxPoint x="400" y="390" as="sourcePoint" />
            <mxPoint x="450" y="340" as="targetPoint" />
          </mxGeometry>
        </mxCell>
        <mxCell id="LkNdAKvkeDDcNydDBcF2-8" value="" style="endArrow=classic;html=1;rounded=0;entryX=0.5;entryY=1;entryDx=0;entryDy=0;exitX=0.5;exitY=0;exitDx=0;exitDy=0;exitPerimeter=0;" parent="1" source="LkNdAKvkeDDcNydDBcF2-5" target="nJQdJeQsAaKc1UQKKqRn-8" edge="1">
          <mxGeometry width="50" height="50" relative="1" as="geometry">
            <mxPoint x="400" y="390" as="sourcePoint" />
            <mxPoint x="450" y="340" as="targetPoint" />
          </mxGeometry>
        </mxCell>
        <mxCell id="LkNdAKvkeDDcNydDBcF2-16" value="" style="endArrow=classic;html=1;rounded=0;entryX=0.5;entryY=1;entryDx=0;entryDy=0;exitX=0.5;exitY=0;exitDx=0;exitDy=0;exitPerimeter=0;" parent="1" source="LkNdAKvkeDDcNydDBcF2-15" target="nJQdJeQsAaKc1UQKKqRn-9" edge="1">
          <mxGeometry width="50" height="50" relative="1" as="geometry">
            <mxPoint x="400" y="390" as="sourcePoint" />
            <mxPoint x="450" y="340" as="targetPoint" />
          </mxGeometry>
        </mxCell>
        <mxCell id="nJQdJeQsAaKc1UQKKqRn-37" value="" style="endArrow=classic;html=1;rounded=0;exitX=0.75;exitY=0;exitDx=0;exitDy=0;entryX=-0.056;entryY=1.006;entryDx=0;entryDy=0;entryPerimeter=0;" parent="1" source="nJQdJeQsAaKc1UQKKqRn-7" edge="1">
          <mxGeometry width="50" height="50" relative="1" as="geometry">
            <mxPoint x="605" y="240" as="sourcePoint" />
            <mxPoint x="399.1500000000001" y="140.29999999999995" as="targetPoint" />
          </mxGeometry>
        </mxCell>
        <mxCell id="nJQdJeQsAaKc1UQKKqRn-38" value="Caches" style="edgeLabel;html=1;align=center;verticalAlign=middle;resizable=0;points=[];" parent="nJQdJeQsAaKc1UQKKqRn-37" connectable="0" vertex="1">
          <mxGeometry x="0.0606" relative="1" as="geometry">
            <mxPoint x="-3" y="-2" as="offset" />
          </mxGeometry>
        </mxCell>
        <mxCell id="nJQdJeQsAaKc1UQKKqRn-35" value="" style="endArrow=classic;html=1;rounded=0;exitX=0.25;exitY=0;exitDx=0;exitDy=0;" parent="1" source="nJQdJeQsAaKc1UQKKqRn-9" edge="1">
          <mxGeometry width="50" height="50" relative="1" as="geometry">
            <mxPoint x="500" y="260" as="sourcePoint" />
            <mxPoint x="440" y="140" as="targetPoint" />
          </mxGeometry>
        </mxCell>
        <mxCell id="nJQdJeQsAaKc1UQKKqRn-36" value="Caches" style="edgeLabel;html=1;align=center;verticalAlign=middle;resizable=0;points=[];" parent="nJQdJeQsAaKc1UQKKqRn-35" connectable="0" vertex="1">
          <mxGeometry x="0.0606" relative="1" as="geometry">
            <mxPoint x="-3" y="-2" as="offset" />
          </mxGeometry>
        </mxCell>
        <mxCell id="nJQdJeQsAaKc1UQKKqRn-68" value="" style="edgeStyle=orthogonalEdgeStyle;rounded=0;orthogonalLoop=1;jettySize=auto;html=1;" parent="1" source="nJQdJeQsAaKc1UQKKqRn-9" target="nJQdJeQsAaKc1UQKKqRn-67" edge="1">
          <mxGeometry relative="1" as="geometry" />
        </mxCell>
        <mxCell id="nJQdJeQsAaKc1UQKKqRn-69" value="Uses" style="edgeLabel;html=1;align=center;verticalAlign=middle;resizable=0;points=[];" parent="nJQdJeQsAaKc1UQKKqRn-68" connectable="0" vertex="1">
          <mxGeometry x="0.0711" relative="1" as="geometry">
            <mxPoint as="offset" />
          </mxGeometry>
        </mxCell>
        <mxCell id="Kle5qxPMQ7towkut4Vvx-29" value="" style="shape=image;verticalLabelPosition=bottom;labelBackgroundColor=default;verticalAlign=top;aspect=fixed;imageAspect=0;image=https://openservicemesh.io//images/logo.svg;" vertex="1" parent="1">
          <mxGeometry x="743.75" y="313.87" width="56.25" height="56.25" as="geometry" />
        </mxCell>
        <mxCell id="nJQdJeQsAaKc1UQKKqRn-6" value="AKS" style="text;html=1;align=center;verticalAlign=middle;whiteSpace=wrap;rounded=0;" parent="1" vertex="1">
          <mxGeometry x="700" y="174.12" width="80" height="30" as="geometry" />
        </mxCell>
        <mxCell id="Kle5qxPMQ7towkut4Vvx-30" value="OSM" style="text;html=1;align=center;verticalAlign=middle;whiteSpace=wrap;rounded=0;" vertex="1" parent="1">
          <mxGeometry x="685" y="327" width="80" height="30" as="geometry" />
        </mxCell>
        <mxCell id="Kle5qxPMQ7towkut4Vvx-31" value="" style="shape=image;verticalLabelPosition=bottom;labelBackgroundColor=default;verticalAlign=top;aspect=fixed;imageAspect=0;image=data:image/png,iVBORw0KGgoAAAANSUhEUgAAALEAAAClCAYAAAATbhxIAAAAAXNSR0IArs4c6QAAAARnQU1BAACxjwv8YQUAAAAJcEhZcwAADsMAAA7DAcdvqGQAAKr1SURBVHhe7f0HlGXXdR4If/flWLmqcwIajUYDjZwJEAARmZMYJCsHS+OxPGuWZXt5Zv5/kZ41a9b6lz2/PWvZEzwSlSiRtBgkkQQTiECARM6h0TlXVVd6OYf5vn3ufe9VdVWjkSjS0u7ede+74YR9vrPP3iddr9vt4u87dfzjm6Eu/4U6nr3Mv7pg1OQxVy4C8QgiyaTdPLlYwNjYEDK83yC/engJZ2bnUcgVu7FI2Lv68t0YycQxlGIwNb7SaCMZDSMS4sPdNpmRhDroklvhDjohD12PvxGBHgkjamkIdfWL73uWor839A8gJp0LxALrSvL4L7judXgkeCTHFsGjsGaW8gjFIvASCXixMPIlIJ/v4vX9R7HvtWPdfa8eQr3GZ9tRpFNRjI/HsHfPdlx12SXe5g1JJIjFZARIxwjMUBshr8Lw24zGQzvEmxZPiKkQiHUUxkMI++D9BxD/PaRBEAfg7Aqca5BHMOmf9F5LTBm2qZXbvCBNXG0CFd6otro8evjKX/2ge/zEHGamc2g0YtgwdQGBmSanGFabAD+CaKROTVrFlvUj+IWP3ulduC2LeJRgFpC9KuNqWbxWYUJhSwd1NSuR4EwA++kRrQTxf+2g/gcQk1aCWABeKZeumnSS5zmoGDCoFfWLDT4q5CLBWyd4Qwng9Bngkcdf6d7/vUcQS07x/QQ6ZA80MToZWglxNFtRdDp1ojGHULjMsBo0DCrIJjrYtnkMt958rbfn4hFMDQmwDNdn4tqowTR6rZaZHWHeCTRxQGuB9782UP8DiEmDIO5Qs0kmAWgDCuQkAARAbrY7qHcjOFNoYuNkzNm7p4DvPvBid9/hEzhK7RtJjSESHzYQg5qz2QqjWSfkqIXjiSxCkQ7DWUKrXSTAG3yigeFUmKCswWtXsX48g49/6FZvx6Y4to0oBKf9mUyaIx2Emc4IMRn2ugbkQTLNreNq4A6K/b8CPP+9APFyOJ6bVoI4kE/HP4alfdmcN1tNVKtVFGoRxCczePjJAn748BPdA4dnUGsnUagQXMkRjE5uoXkhJyxkdmw4TKaqVgWo1Gtot6m+CeSI0ElnLdRuoVEqIM0L6WQcI6kYirNHcfmurbhy7wXe3ktGMTFMMyMu7dtCnCo6GqYpwfSeN4iFXMse86Rbwf3lj/3c0N97EKvYJQMqMiPBTeZE25O+o6lg8qEdSpu3Qw3c9sJIEHB5Ym8pX0G+HMb//Zc/6J6YLqPWimB4bCNqzQRqdNxq1LrdEM0Hgl5OWZcgUVwtmgAe1afA1Q11CWgaJASwiHimSUGHjWnoNFsINZtIh2kydCtMRREb1yXwvtsu8665ahIjNDNizECc4YYZruxiuZwigXoleGVuKB+M0tHgbaXNF8LK937W6b9qEK8E7/KcUjfqAsHiCV1y5AQklZ/1ben9Nv95dNbCKBTraIXj6MQIZjpcT7ycx4+ffr774msn0Wym+HqKAI35di/PZbl2+Nuj80V4dX0TRPI2QHfbMqntt2IJykGGBNqMgJANddT7QO1MuzmMKjVrge+IF7F5SxY33bLXu+HKjVjHejLON2SbLywVkYyGWNE8xGIyW/rmj3ow1A1HX3K5MJQO5Tu8XEIB/ayD+u8tiAklKzOvzT/2oNO8RBNqBFi900Kt06DZEEI2O4YqC34mB+w7Mo8Hnni+e2qxgjP5GgGZIkjTBlizWDtx/mZbr3Pay2KP2psPWvAiA4zI174qg44qESnEZzsd58YF/b7qmYDXYDh0H0NFmiA5xJNNJDNdbJ1K48qd63HphRu9C7dnEFWeWm1q8ybNFpoprA9RxsfQmC5ym8BmXsIENJ+08HmZRIlQIErbWebHP4D4744CEA/mMLimZle9rernVSva7ToQ1/m7zmOHJkA04voB1NNw8FgNjz75Qvf5fYdRbsVQJhgqbcIiluRzGTpocWo6gU+al8gRgA3IBI5ALPJB2QOxoceZKn3q8J9UpSzoILXBOc0Lr41whGntNgnmCmJeFbXCcVyxZyvec+Pl3nU0M8ay0ujKY5MpaPDdulLE3zFfExPINHXURWekJkmDJ77J8w8g/hmgIE8BNpxd2wePOTYkAUM2sMCld9Tk09RFmoV2hpg5Mb2IuYU2fvyjI91DR/I4Nj2HUqOLDO1exFIG4K5HnUdt3uLzTnMKtAzfQMzfa4LYPevi1vM8N82sNLEa0SZXj4N+i5Q+hR8Ou5E8/a5Vymg1C1g/FUdx8Ti67Rwu2TmFe+6+xtuxdRTb10V8MNd4ZHiMT/8irHw07vmbVxiFrA2T1bl6M36G6b86EAf50dEVv2xF/9pAWZTLZespSCczBGYbcdqP0sV54uf46RKOnTqD1w4c6b5+YB6FwjDanWGGEiHI2bh3o8QctVqMNq9+s2lWfOqBCEDXp7NBLJKT6H77PABitQVmQigsXhOWQyEBkqYGlbTC67Z5j+/YIEi4SsDT8fNKPBZQKRzFdoL4lpv34qq9O71NUzHQTKY2ZgrpVMYYpjMxXNg6I7R1YhT0agT0sw7qn1sQD6ZbQtXv4GhMs6CniX1gBSBWd1mz0SD4CMFwynpnwxqgWKDNe2Aajz3+YnffwZOYXSggmdqIRGo7w8tYeCE6d9FI0jRvuVZBq02QhhJs4mOuqqhXw3o2XJwCyEoQ960HH7w69kggVnvA95WHDs/tqC40OWn8y3x6dBjDBLaBnCYGQjUea4gQyF4rh24rj3p1AaPpED77yfd7u3duxq6tYai3WinT6CCNJ9rQapdkCsngcPQPIH6XabX0rgSxBgFEa4G4RcdHz9XrdeQrPMZH8aMnD3Sfe+l1lKoeTk2XkUhPoNmNo1CikxQdZwhOU7UZdofOXohaPJGiSeEl0GjEGabsSQG4QYRo2CMAscgH6VkgDmjls2Q+G1HPhgBLBy1Mb8yj2ux061ZB23Q8ZYYoT7JlLQyZILTtI50qrV/aw+EWMlS5rz39BK676hLcevOleO+tW73xYWrlSBXxUJkAbvN5GtHMa9D1dhaIg+srwdvrqwtosDL+9OjnFsTB0fP7Q/Xbo1ClZTVQIaCIrZB54kBoDSjqxBhNSxRLwPRiE//hj77WPZ1ro1Bu8Pkktmy5BPkSLVOaFi0BKSTb1xWQCtS6wUg2KYcarEMt7dE27oG4p40D8gv3LBD74DUzwid7hmnlMUS7uqM46MTR6qapIKA2GZd7VDasheXPpVDaum2Cu0Hzgs9rEER9JRtGx1HJzWJhfj+GRuq0mfdgz55Jb88l63m/Re3Myig9z/eFywDDdk7ugbiHUV1gWoLK0wNv74GfKv1cgtiY2khaxKORKA0lIKjHtcNjJ9xFQ0DmlRDBtVSsI52ZpGajn86Wt0m5P/5EBT945Knuq4dmgOQUml6Kvo5ATjB2XXeZ7F0BpG0q3BWQm2jjStlG94giAdieJWmKpANlcOTBB/3Zhezur6Su9XL4xDAciPxn+TtQgAKwkqY06b7+Si7Wk6FxaR6tN0K9EgSr+pgRXkK1dhwbtiRxyy2X47037fY20MagcrZUmiFEC6Zdd0PaqWhEs0ot7ADMrj95IO0B6v1K6ovnp0Y/1yCm4WeFI20VYsm2urRzKUePalagqtLaLVdbdN428pccNuClV07h4cf2dedzXYKbRREbIuizaNDW1DuBw2W4tbcMCj5wCF8eDSQB8dlAs7p3BonPCYRvFsS9gNz9Hnh8Uii6o8d0z/Vi8DoPQXkGw+R6OqQONrUMIdfPXK7NsGLmyBWMZ7v4+N03Yu9FW7xdO0YNn7RGMEkLQ73dxWIHIynq6SA4klq8ftqZmpVmxllyeHfp5w7ETvu5NHekN1g4atZVgtK+KthSs4nx+JRBZ5F8chb40SOvdJ9++jUs5jtodIYJ+DSqmoxDm7YTZ3FF6ZjxXQHWCkbka5Zg0MELfgcFaL8diC1Fvubt08rffrhn0crn1qZBQL8xiNWVwRypYvZMnTqGhhM0qYqoVgpo1nIItxYxOZbGjVfvxUc+cKU3NQI0aGrF2SCtJ7fZ2kVo0riRvyAPcliVcdns/qW/I/qZB3GQvt7RnBqZELSDWUi6Ku2rubwtqgCZBPU2bcFwBCdyBbzwwjE89MDBbiEfRq0ZRig6QuwNo96RNRilriaQCf4WnScL3+JhYD3AklaCuCeyAQCLfgogFgVAXglikU3SJ3U0eMP0qIKHqUbbdAgjdEYN1EHDIDkSnNXKAoaobatlHhMePnjPLbj80q3ergtoVDFpQ4wn5st8MA+BAtZxrZz9NOjnAsTGfuGIqjV61tSerVYLC4UimtSiiaERqMepSqHn2Rw++8JRPPn0i92jx/IoLiVpbmhKJNvISJo2cYwgjtFpk9lAJipNm/vOWDBo0QevHUiDRdU/7932QRyYFwE4A02+FsmOPxf1K42jAcwa9UHs4rG8MG61GGx3KKcawhGPII7wSBu/5SYh6fkw7VlNzG/Uy4yngmSMjl60iVZlEe+58Ur82mf3elTMiCkKBUuiuBEjWzTKK9nqhZ8OddqJzp3rd45+5kEcmA8dasuANFAxPDxsmqHEFrJEaTUJ4GOyeV89jgceepw2b42mQ52FNoSpid3U3kk2oR1bddEKxdGNkFXMpkVUoLJdV4BuTRAvL57e7b8DECvkMFNgLYLfrpuPwGcE4lCYDhoB3Om0rEuxSVNrbHTC3lSs0ua5YgFDQxnmv47cwjTGMlFb81cpLqCxeBIff+81uOqSLd5ll44gRstLSwelU1QPOu0uopqfEVam5WyfJ4iDPLhH3xa9QyA+dyG8QXbOSauBWPN406k0Wu0WzhTamK2n8IMf7+s++czLWCo0sSR7LjmOVHoC4UQWuTy1TDiGaCKNcCyJxXKNKY5YAYrkhdvUxUHQDQBvueY7Oy9BOAH1QexoJQhX0jsFYplSIplZNjDC53SU9g1ArPnLZmqEfFOInB0bwVI+T43uYTibQYOgDrcYBmWS7tSRrMxj99ZJ7NgxiV0Xb/L2XBpDOs10UP0yaDNPlAaRUhD03pwtKZ/0aJCHQVkNnr8J+qmAuO9tOwrilCZdBhAZV/6jaghFLR6tn5fPqedAUGuyGaNSxcyZeRw+WcZXvvl8d6EYpc3L5jE2xKO8cc3jTbKpjMCjlpb1TLOOZgRDDrnhYiVL8UcEYL+SmOBXaM7lIBYtv/+zBGI7thuIEV0CYbdRZ2WnY8Z78UQYkYiGyDugm4YmgWzzPmgXR9kyaTSwVetC84vSMVZ4/msVFrFjPIXywnHMzh3C5FQMd919JW69bae3eSMwyvg19qd0KNs6Utw8Kk8BM07+sympLHtL/6CMg3IXvwV6iyA+t9AHKQh/MJ5g1pZlWpcJrEZDQ62s/YmYOWmLuUVE0zGMJ8axRO1RrndQ64TQZtt1ar6Bp1850H3k8Wfw8iuz2LjhFr464gOTL2uQwI4SFNlHgY1waYCAYO4GQ8EEkGzIQaA4kOjd5fnUFdHK3AfN+Fun85enaC0QC5SqUM1WHamEOtYqaJbztkIkznvTJ4/i6quvxusHj9I1GEUrOmT95uF2zQdWDCH6Ct1mjEDU/gGar9GibIpU3GzeQnkqhQJbu0MYHfVwxdUX4pZrL/du3DWGFN83rcxjt1lBJiX51lEoLlnlSqeGGEaUdjTNj67uEeoBkNXPzP+BMnAO5PnTTwXEjvvvdHwQKwvKdLVUQWqEThcv5wt5Zr2DWDpJx6uNYrmJkaExlKkdDpys4oUDJ7rfeeRJnFyooE1tsWXz1Zg/GUGorV0dVqeVQlnZMtioWE8bur5gR8vz+bMA4kEAi6Tx5NgJKAKxRNto1JDJUPN2C2hUzuCe296DTMzDTx7+ITpNj+bDBpyYq2ChkUCcYKbaAE1nZkTAStC/9edE26APK7lXRicsEFeIeALaK/Fa0X6vy8Zx5ebNeN91V3lX7o2A0Wg/DbTqS0jS5BjLahgljlxjHvVqA5nEMJIROto2n1nhk/iOFYk/aPJ3BOK1C0HNiDTvaiC27h5GH6Z2zRdUY4FMdhTFTgMljQ0zU/F4Fq/vr+GJZ/d3n37hdUwvlamNM4gOjaPaCmF2to7xkYsYaGKZNh2ks4QSxO+TVlYsJwlY6V2eL9dE6upy0K6oE6Q3C+q15Sc6G7iO9FYfxNR7NJOUlgY14XCGgOrm0Sydwqc+dAtuujqLZ39yGgf2HcIzLx7G0Lpd6CY3oUBboNMabOLJwTRSY4KYxoeG1NkWssI3yFQgtJU12y7aptavFQjmMHbtXIdb33OZd+uN42jR/ouF6lZBTiwdwno6k0lk0eC/aCfOSqMKIxAzDrWGkqFaSR7dCOT5008FxBLOYDxtraYQMfGaSab+3VA0bNqkSoO3ylqq/RsOHDmOZ58/2n34wf30ijeiG02iwnerrQi1TgyxVNaGk5fmaYqoKVwjK28OxCq4gJSvft5+HkAsUywAcaKTR6t0DFftHMa//P33okXlefhQC3/6F3+DXC2KQmcU7cgIS4gq04DryGbMxdzverNBM0C2LM0KrWZlmWmYX5OEdIwS1M38NFJhKp12DmMjXey5eBw3XHuRt3v3JkSjdYzQzqiBkdORiYfjBDNBzH+a/ukqjzOHtLOR6Hy3HgjoXTcnVqN8nhkiaYK3F42hHiYoCWA5a7QecPjYLF547WD3uZdfw+npOhLRC+l8uPm8AnqbtlWb3pp+uybQr9GDzsIq1AeDe25l3t3QCe+qqWNhBQ5XAN4g328M4pV07nQF4fbT5ygId+X15aEtB7E5a60SRtIOxN3iEXzifRfjH31ot+YO2Sjc9Bngi19/Eg88/hqGNl6MamPIZuwFJOBm0m7qaalSNccwGiPw2GJqXrM5g1rcSnnHQi3a2zW0GzkKsIh4tIpGeZppKml1Nt5/z83eVXumNPAtK9uOsog7dEyaddrstQaGsuqJVnAuw0H+1gLvyut/J45djQlPJNj8y4bj7wOLbJLG4jh0rIKHH3u6+9Jrx1GotJGvttDuDiER28pMO6Ha4ASdMufAKbs6SmsEv9emNwViUsdG8QTZIL/u+OZBLForbX1Zni+IRf3Q+jaxA7EcOwdimRPh/BF85vaL8csBiH1Td9/RDn7yyjF866EXUMVGOs0p1wuk7kwqh1g0QWmEqDzY1EckgRBqDXXRMT3SwlQklgqaGUuLp7B+agSZZJiO5CLt7jwmx9hqFhforxzEHddfjjvfc513zZXjtkfGeIKvWcqpvanhPU14UmtNPIjUooqDKaFngfanCWKFbdxuEiC0iyUgadJGE6lUyjreZ3J1FOklf/07j3efff5VVtVh5CsUUmQY0cSIbTwyOy/7yzVvon4mmGlm3k2zlEbuF61opXkRgCEYfAjyHmhcpVH07oD4jWktEFs+V1D/WYI4pOrnQOzMiVLPJg7nj+GXb7kEv/KhnTYgGU8CpxZyGN4wgjKx8+XvvIbHns9hZtFDm2aappZGQmnUaywroj2q/viYNolpEMRVm+qp5l6dOxruV/zj48M4c+YMmtUKHbc4bV6aHC3tieEho6Hu3CIm0mFcuH0Ut793r3fh9gTGx5iWaJmlpngEYs2d9idYsXwMxH4594rbz/TfiSau1yqm4wS2NhNcrTXZNMUxc2YRrxyZxv/zVw90a566YIZoXgzxmSwBRU0QTvAdjaetnA7p0uzAxb9mTvggHwCygdgH6CBAAnArbWYe+++8VRCLzglkPw2OBs8DcuF5frzuNzWT+9Ejl55++h0JxE1LU9MbdOxkcToQ/9KtlxqItcpZIO6G26h1mzhTrqHmjeD+x47iqedPYWFRpkMCkdg4Fhc1OzCBzNgETlfmEVIfMwGpkbluk+ZDR86eZEazgOZFhPZyPBKnFvZXkfMYJdKzsQTSshNrSyiXjmNkqIFbbtqG99y409uwPoJkootUnOVM5zIVYSVsalsurf2Tze1y+C6BeCWtVjAOJOqDbTaUafm4UdQ7CVQJmn1HFvGNbz3QfeXwaTTiE+iEx5g4gpjmA2j6uxE1hiuvmHaXgGZ7OajGKslSK5qVJWJT2AMxaWUhByNxLp2DaVWYZNMEDjjLtLmBT2kYfJ8/V4hsrS625YMY/vnANY0S9klxqzXxWflhWiwMcsfyO/i8Ixsy9+Wgiq9K2WqUkM2GqDHpexSO4bO30Sb+8B5rCVPxNkJ83mTEyq/10F1aBl+7/zjuf/BJHD9dQHL8AjrQNC/CNBEmN+D44hxjUW8D00jwKnWhNqsNw7DZcgSrlkvJX5eJKFKF1JmO3VoLw2lqaBRQL5/C3MyLuPKyTfjAfTd5d7xnM1KMv1mvYZRgbtCxjwvEgbjEPma1ta1oJYhXl/47SNa1RtumS4egRbA0WDAnz3Twje8+3t13ooxOYhM95DG0wtTA1AotZFgYbvMRN0KnwlUy2dR0CGDt70Dh28YivB40PdKeAet5AS1gu2+AORsEfQrieQfpnOEFpcSjscAYsJ9WHl0rID4X+fJhfNpPQqxVIYpfoG6z8Fusp81wy+1vzHAlF/UN01JAlFHeffNWfOYjt+GGqy5EtzGPaukUGrUZLC2dYMjaKkABUcu2KXfaETpGWjHE2gQnWdsARLROj0eVk9Kj1KuCx7NjWKSPM1+hxs6uQ2x4K07MtfGT5050H37qjE3a0uwtHTSqF+R2OVTXpne41NYma+5YFzUB5/GnX+6++PIx2sRJpNPraMDTyWNTaOAz3zV4Q5PeeeR1jSSF1BdsxxgFlSDrKM0sdoUY8CDIHZjETsMFYalv2VUKV+DvGPXi9M+NBn7bteC6SMXma1R6+m7yeokaRwMMtuu2kwUr4tnMR5RXmQHtmLHyFrajBhWcXPnYMpIp4BxlTQBqYmQYuOGGSbz3vVfiqst3IBmtotOYRbiZI1A7iLMWRNpRAjbKsBUumZpf/GbkJ8U0vm4jkMjg1UMn8f2HHu8uLsk+jqCs7KuIlpGfcqvYq9P5xfwWSWrfC2vaoyais5iY0dnFJh589BmMTewgnsaRK1BL+0OcWubjiA/TZrN1Mt06C4iNfo89n/3fbCI1R2Aleyx0sYVD7rYblAOtXj5vw8/G6v8MTIl3kXrh6+izFTzZQBZwHwymhaQxmQcb+vVZ58tY+aW4ZIfqaHu50fa1a+SVps/K3xqtjFIdz2uvAt677NJhfODea3DzNRdiLFVHOlxColNBgs55nJyg6aBB6YhsEB5l9rEqmcY1/2IFyaQslwrIZFJIZbLIl+uoUVvHhiZRZp5fOnASz774OvNCs7napgnk3rMGVau4Bd5zAFjkJPa2yS+Ys8hdTyWGka9Sm7DS/ukXv06xZ3Emx+wnN9C8yDKjArHTGPxBJtgIPE0NDGn/fwJZQAwJ0NqXjBwRU6iRts6rZHq6Pke7Fer8CsVbsiXs2ojP4zlQZjmpp4OgJpiNDDSOVQiDBbHy95unIFzXtPbZAbgjG1Z5b9MPaI/QkvBZQ+hqdahdpWVtBXO3YRztrMLBdf9ozxlrSb5rzZQNs4MHjiIt64onPGTSqtR0uPngnguAX/vMDbjr5p1YOP4sRqN1TKU8jNG5kxVtw9SUYlAh3MBHnwOyVpAUTwjwHdRp73ap1MoUaqFB4GemEM5O4ocPPt49dKyEVDoMms8SGUkApgJifGZi8f21yMXyLpLyOVNYQjiRxsGjZdTZHFUbUQwNb8ZiTnNRx80LNkdO2tE0ZZvXGrxWM9BpsnakQzB2SyxQd7Rzr0LW5tQ5Y20cErAWRarDnY0lBZujIPIsyAJ/kxmewvbkYavCmID6QjLw+j0T9tv+vl2iqAPtawDun6sCB7Z+UCQGNBaeNLE0sLajEtOr6LGA6s5rzKsqLeXhn2sDQlVk/e47tsvJmRS8F2IYkQYSdPpSCWl4YIR1657bL8c//73PItnJobRwBK3yNO3lRb5YtXf69vtqRLOOgNa2AzJmWi0tI2PLGXG9TiW2pjXlOzmGucUS9r12hGVG6AqvIgE48BHegN5BECszZ7P+RpNpat0IHn/qOTqqWqOsXSTTpoX6WpiF2aMOFaTG05UJFUoJUQIzapq1YKxZVaFQnkwAi8OLy9gLiXWdAI7MG3u619tZUjantneSZ89U+s2WCtVYV62QffZ/i1T4g3wusneokVh8fFZH9YwG4A3Er7gFVrZWTJO+0eH5NnFIFdF6HwhotmGBLexMJrHbaDBM2ehZkwuPqsju/bILnxQKu22rAoD1WRVZO29SczN+bRcuZbFjUwofuGs77r5tL8azrPDNM4iE3Iw2pZEGM9OpyVMt5tPF4UgVlnntqNeC4VNTaw6znHxNjQ2p6zQUt/3stEl5odTAgf1HunG+1mL61OvtwpNcgnDXhuo7CGKRIlTNEfczNbu4iDRjypdr2HfgCGt9glq4iOGhMRvwsGmTflLU/ROmBlF3TMxbZIM77/MZ8swK1rXgnnh2gOd8Du7PIw6G16WjorBZSIGmClOjmf0cCC3gAQoAHBzPl6wvWk1jmKAlO1s8aIe1yq/GNBXITJvn8pFU3rzTSIRO8niK16Z5VJ7OUCZ8hhz3n3V5nOV1x/Ysr8c95pfyU8U304pRahsrG6ggO1IeXT51Rf0CEcqBagXZOO/UllBZKuPDd2/Gpz54LS7YGMFQguYa5aeKoz3eztbGLEcCWKaEHGwJTL6I5r9qDkabqlY/IywNTRZtNyM2qDWTL+Eolfx8vkBpLZf9G9E71E8sUsS+VjMSKFWnQ7biWA35v/n8n3erzUks5DN09EZNIwuynQg1AQ0sjfRI4DXtJbYpjH/5Lz5gXUD1vHNSBomVm7WarOPAuQaIrKtSLOI1OZb5chXDw2n7ktGf/OmPceJUCSNj23BqjhovmkbLG1hzp+EoBtDXstQgFJNsy9UosP1WkpOIZoGFENEOm2xxrDOfNyJsaTxW2ATNpKlEA8XFE5jQNq1XXIRS9QzTTY0crjP50raaLuP6YkV9m1bxDqbJB46uGbAEyjJuuvwCbFyXxeTUKOPVvhnUdQPlrj7o/lRUgp3xtKQ5VWPVYngJygZ4/tUivvPwi/j+j/YjktmC5NAW+jQJ2/aW1rSTA7nRaCGbpp3P8wqdukRc6WF4jLvlD5Jo/FlpiHYWkWyfxES2iN/7rU96l1+UQZzPpEIMUfY8w/BYLV1eHfUroaN3GMSsmT2hKtKEgZhFgmPzNfy7f/elbr01xUIaRrM7jDaBo4k8Ld8llROiObCoHGVTFsK/+oOP83eDGYydBWJRkHRitHfUNR2Dcy0C7dB+S6XirDxMEdXMvkPAd37wMp59/ghGJi/AQqGGphd3aVFXn78ZSn8Qw0UgQPUB1Kc1QUxgqPnU8GytqgKJ2OiUCsfTRHRqM9PCleO49drduOXWS7GNTpUWYaryWV3i0UbAeAxiWV6E5ya9KwjI/GjJ/mcGlAeVu3PMZLb5AvSPut7HRQfVahnx9Bib/iSe31fEj549gSeePYb5IgGWnKB8swRzYCK5eReVorAQQibDCtCUSdQ3OYLWTGaRlFYIp6jh87jnfXvx4Xsu9bJ8NhtiK9UDcd9XEK0E8erSf5OkpPliIPV/BWeaNHLs+BxK5Q7KJTkrBKXTLUyQLyxmUMJUBqMaf49FIac2oe9gGQWhDTIDJnvMtDhCjR6j6tb6r6EsMEplMJaR5pFTp+1Si6axr9oNvO+OSzE5wfQUDzubmxpL9rE8+6B/OliyNCimnq3W4+W/3BWffHALNNYvwfAEYOd80b6nbR4JLSGbaePiizdg18VMNyuZ6rRaFB2Ve/utcMjSxTpfi/W8WMUu1u6XQr0+39Df9ITpUPtA2at3QiaGscojwK4Ry4TAD1OTVujQebSB916axQfu2YOrr1yHsZGSmTVxOs0Jyk+9QhHlTaYZ4zNWKIxfSmGZPCwekwqi4Sxa7Rj27T/CVPFZdX36986Hzu+p86azi1N/tb/f/JlKt0ZfoF4T8PxoBYiAB0jrvSJilkaUpRBSF1q3vIxVgzUFMMEmNxXVxnltZAhifd9C+j9G0EbooYco3MlUEt1WDtuJ7BhLukFJbd7o4SMfupEa4yjDoiNE4UfpdZu3L6ARcBK0CjVgkRP++VOnRQuP3ko6kUQ6zpanRVuSJoTrRVlgq7qIT3z0vbhq7xhSRGh+ycXBrBirH9x+ixmeJCe23wPXHavo1W+ud+g+EoAhMlgxHbk8rZ2Hs+EgpywTG7G966oVOsYMf904cB+15u03XoCpIfUhz9GOL7LVLDJOmoPFRVbMhPUNl8oyJM9B1NweNXw0PEyF0sES/XC38kZV8vzgeX5PnYMEP8lE7KCov867D66X6CAfP76EZiNstU47qdseuxSQmgYNabpvSwS2n2PeNi0Uofes/sk4a7Y4QY84QZtSHLd76oKSVSYL23nZ4a47RsjaMT3DStEiWJP8Wy8XsW0UuOHadfjQB25ErXIGjVKOz7IJ69BDpy1igwVMfES97j4FhR8A4dyAcADgE0xHmIWr/l42n0xXPFJnnCeRThZx/bVbcctN6zHuf0Rm4xhYIWFfFNWXRRMMQpsLaOPYKIEZcKTH2tVSO/SoFWmS/V4GHdXva/3rQVr9EUymqTe6yfz1mM8orXrGtLKVCdswySQUQ4YVUf3z40zb7i1RfOK+q/Cbn74D4foM2vkTtGMJZIJ5fDRGW3iR5Z7DsJpDPwFqCYIw+0wcdKiwQiOYX6iiwQZT2HHOncPRG9HbBvFychEvZ2BhHpg+nUMsMoRIWNOopDdWEpPiC3gwWRKsgBTMCbB5ARI42YZ11qBAe7oC4Tu8JlZTN5nJ0CYnGIjSe993HS7esYG2qrRXhYXlRgC1AjoY8VIZrE1q9Fw+V5L6vDUhRn2lHS23ajbZvLcRj2pQocTWIInbb7+MgC5Ry+VQpfPZaPA5OjZhNeNWKVU5yVax+uwAK3ZbTEV0zVjycmlejUXKU5/WkqEvMQGdSidCX8EqIy/pjqbQjyXbuOzCMfzur3wcu7aMoJY/zWaugG6ziAQToRXX9QZbQynVFa1tj4gFfZjSPk7ZCOEozc62pc93rNd6b4DWysGbImeZdu1fH7x+Xyu5XGxg+tQi4rEsbT3Nkwg0rWriMonyeSaeAFOTokE1YonCp+bWygMNCKzG1s/sc+8aK0pwj8cQj/oWsgCd5lmboIqwmd8yCXzg3lux68INaFTyvM7mnpEG4F0OACZm0AQaELBf5Ma6GtxRXjpN2u2qTAxU9natNI/duzbg5psvwcVbhqi5IhgbTWAsnUCWXl2MGlwzTYI+YWNKeJCVvj5Li56L3XMBCRyOnR/S/+3YbFiyyklOrmRJSNpRcgy64uKdmjnet143SmVwI3Zum0TMq6NVLyIZD5P5nswp7bHQpswZ+CCb8SMnpZNwIG5F2GLPGoyU4/Ol83/yvIgCMTirMWjx6CTXakbp3FEDx9Jo0lvXEpoWWaKQJbcyGYMZcGf6u4KVebHAyoI6i4Owdd8/Oq0svQazT9Nx/Qbuuj6NKy7dgKmxKG1XajbaxzbwwDxYVxhTtJpGMHDwnvqYjVXjfDIg8F2XG3nh0qjU9LSFK4VjuOW6i3HbNRey+SxSS5fQ5LHRKTAUzb0Ouir9902M/d8uHvFKUm5kDjgOfr9VcjGwEhDIcsbVxae0MGs8qvRoznQaIJbxnuuG8QsfvhUXbqP50FpAIlalk11l2Wu01Dnsq5GuN5lEWhFEDY2/ppQYi4s3pHTOh1Tab4mctqSWYU6VWVo7BlrNS9CyE23P4b4CBDz11KvdSHwUddqlFXpWlWgItTCdHI3YdVImcFt8qJpvixJZDcjCjcXDjIrNSDZ2yXbxqYR10+cA3KZF+hzY2SJNeomwFdAIkcR09HQB9961FffdexVmTr+CeIJNYEhNOx0V2hRhmgDyl6VJGQrDkaZ03rxdC9H+pAZymtbZefL6OxFWF9q/rba6m6pIp0ssqVP4vd/4AD783m1IsuSm4ikko+qWUjrVG8DKIJOBWQkzH+JelnRuv332f/f/uXTxonHf7tTkquD53u2Baz5TGmJngKkiMExTCBQ5xaz8Ko0ey8Rd134SUWSZkTQ9zOsuT+F/+IPbccP1m1CpHEA+/wrzPkPJ1Zivsyud5iK3iJFKrIZSpEolF8GxoydRopgUlUon6Bs/F7kUvgPkksgaxwJwnxsIsVZpmh8wO7NEoSdtLnGbdlIjTB1HobkmisxnpdWC2rpWU2LajRyAepADWuteELZIxaXYXbMIrB9LWM/AVZdtxcc+chsWzhxGNuXA2erQK1X3FJ9djZRuY/1QwZrm11F54Dt8d3RUI1PzOMMK8v67r8Vdt2y1DoNxWkhh1vOYttgKxwlYmj1W2d6xYnmb5NJh4FZlcE1Cj1RZVbkjHrVuuESmn8Hs/8Inr8U1bGUSiTodO+ad/4JyWEkqF81xbkgZROkWlup08Fqmqzpa/RrI8xz0jkgryJoGWOXIaMRGnzhps2mYnWnjzOy8Xe+RX4tXI2t86W27bhZHKtRgJaxoEJxG0mBsusXqx12NlTZx8LwzA1xTP5ogeFrUiiO0j++6Ant2b0S5PM141RGvpl39nXq3z65PW2Gq+aNNp9UlYp4HFdPMF2rWemGaze4CbrzmYtx9+wXIyLzXXmd8KqoV33L8+LyTCVPEvNnMNzsqNqXS/RZZnOLgN4+OXbr0xtkcUD+ePg1e63Ogof3YeU1l4UdKkk8zKHdtj6s0Do8C9953Na64Yi+Kxbw9q71GOkzkILvBJIbMe24BagzFcg3TpzVcbn6wmRVvRArlbZHiEIj7dZRatqWmNmUd2Llcna05C0l2B8kSZTPV+uyISTFwEzJ8tKNckaQ134iCYnIx9NMzyH0KnhKpaeSBPEJgZWm2jxHI77/7BgKtjrEhxk5NbPMqDBzLScCx7FBTqVVx2wgwzWw6VUEEYPWbNorHsPfiCfziJ26wrjR1VExmaFaxkARkfZJB5pgjV7Br0coyVRrebeqZJQNlEZgHBs5Q1GftHQIcPgr86NEDmKbyisbT9ty500ltS42r9ZchL6lP+9rjLQUmCfm4WIvOffccFNRIKUgVnLLEhsW4WKhjKU87kBefe+FAV6DWrpYOwBSFcR9afUCzdkooxG+giTVy9U6RQhSbLRuwtAnBVFhqW5+sPj6uUamPf+wWtBtztl+vpwEDvcskBxyQVhe32cpo+Y8cOa0HDEVamBihdm7lkQyVsGG4jrvfsxOXb+cztIPTVDMNBqnuqhplJNlJ17WZHrnFVmiD/DZJogxApCIIKOi9WEmBBl5JzhZ255rMYxzRMrIUZZACG2AcPdnFo0+8gvsf+AkOHpujdmXrxEoqKzsgm38ctKyMP6wJ9my9Oi0BOYQnH3/O2j4zKXTyBvT2JbSMFFwEE2Mbkc1kKQjWpoY/jtQDqs89bSyAuFrtiM9SC5t3ysuryPINSeJZjVcjFYq869HhMEps+lKxLj1r4LprJnHrTZdh9vQx5mMAtT7pkgAhcLQJXJtEY0uLaqhW5pFfOoZmdRrt+gzuveMK3HTluGngYQ0rM8+CbJAouRDuYzNvnNkVZumyCrUaDYJ3EMDnJletzouoPU+cXLJ4Ts8B37z/x/jJ468hnd2MZieLeotNnNm1axHzrPv2jFOCtUYHJ0/xF0XS+mmBWIGoqXG2WgSJ5KiVT4Hm0OnpBYJABURSrbfavxxUKhjHrhmWFtYzMqN9hX9OUvzLmHEsY15bTisLyZ3b3AmU6aDUMMJW8I7bqD0v20Xbvm4VztUq3z4080IsU4PotHVx7que2k+hUT+NVLSESy4aw03XbEeGFaPTyDMODYVTuweJUrBqqi2jQQ5Wp55dynfYjhurJ8PkOcD9cBwHAJbdyr/kgJbHF/gPrkUZeJbXnLI5mxTd+OQEHn1sDl/8ywfw9LNHUW6kUa6k0GyNYCi7hQ/Jwh1IE8ukxz1S7sRR1OptvPratFUM2cVvRIOhvCUywfEYBCQdo10tF6iUji90cfDUKesbVh/gyugEXHu3TS+3ycZdta6tyTcCBVk3Seo3lRC1S6a4yQfFVig6dpqOqcHFBjiZKz4rjYp5rczG4iGUcmWMZrMG2CS9Zc1buHgD8OmPXEsXddGfG1CBVlPIRhYQLcEEcKfr+pU1QT0UqmN0NMyKUMGmjWl86N6bsHVTGtXiPIZlR7TqBLpLk8jPYo9WalqR7M+A27R9lNegBTPQMS2O3b8272lEUtwga2BB5pzd09+VkQ6SZMpnrHJaGVD21mryKmue+nTaVEpyS5s81hnW/Q8fx1e//wxeeP0MhTmJQolKKzyCnRdcjsVFTcrvS97wMsCDJCUoINeaLRw5daJrG8F062qzzklrlet5kdMgVPtMjOxLWZnqjJqntilTk70ye6g72yyjHEmgFqajp3f8Z8XqJ9TX3uP1OOKNOMKatEqQpOlQxZOsgkxds1Ni5pgRr45muMFwGhRcHQ2NDDGelmVSOwy5f7YPgmkoaXOn9QVksQpDtrgyLdYzZtIQOamsNIfuxxBvekgSbJFaFzfuAv7ZL96CsdZJjKOA5uIpH8gErCaGa3UIHTgNnjRrBVbVBsqFM7a16W/88kexY1uW2qSGVFpf7AwhEc3QDmfuGadsPmlktVO9WWTWbdX/J0zpPaVffefKQ9tjfi3/NWOd65pVcILVBqs7rFZklYfALHtbAJF2CyqEZGXyIvWB7QOYoXRYcTvMo+x8OduFYhXzS2UIl3Ml4NQi8LXvHccXvvlj7Od5JbGBEhpCengzw01gdmbBpmVavznjFyufgfyNGb2g6+IVhTA0PoYj08fRpt5Lj8aZ9nOrY4XztkgBCCg6KhnSxJqOk2O8p5aWEEplWGOdJu76/aB62hJPQdpRexXQE1XTqEIql0oolsUdlMosIEq+xUioE9RtbqxzjQnajucqNNpmOqrQbFhTqSG4GCDjc2nsldMy4n01l6aB3DwHraKO0qPQ6o84C3nP9jQ+8+GbUF44jA1j6o4rMB9aFiQgNxCnHZ3PncHYSIaavEy72sPv/vYvIy37l4IZSSUQi9FYaTRRLGlWVyB2xan4mbhzkIBmTq/ly4HZ8shgNPrZIDDErTA1ZCTO1ps34pSnNgtmArrqHWKcetccZ17ugzY4d3Lok0ubdLfmMki2Ng3LSxuk6OrgOw+9jr/5/pO2i5B2cGp4LGv1SrGcZVbKXFAFDLIX5HqQ3L0gbpmj1MT1Jqq1BmYLTZazMHVu+awW7pumfiCuOdDSk1KxiePH6d2ntOPhclNCwA3I2WFsCmmDaUM5DXEODW/A8PA22lMhZLLjJpg6PeAGjzo3QfnXWmL9ttUHrptLhRvYd044AfOn/V1Obmm4a7SkKQIbVazO/OEh4MYbJnHT9ZcQpIt0PIvUvpqy6exRVVtbVqVrTGWSANp9cQoT47ynWUQrSGmQ1jXtS+6TZEQZUj0bSMlqvnlwxUhACBxaTNCg7djoJnmMEzwp1EIJtksxqHMqVwcWqx3k2JIU6CTV6Dlqq1y9v0zj9vLt0hhIybGAr/lzWizAOJiOOs1CmQ9Hp4G/+ut9+JvvPIZiTX3iaaY6xRxJ6/oAFvVkL3Ll75RXn+0Z/zlXuUIoVOvIlxt0GM8QwMq7q4SDoTlyV/rIervE8AhD/pPggSpze2auQi1FENPztE5zXwuLrAb6GdAONeoStG1bWRBaQpQvMjM6suly0IjTqIhRC/e5QdZCQ1qZBLbjOkHcZEXQ3AyNyduGiwqbdmLXNL0S6prloFk9J7GCrRumqccwPvGx6xDq5GgS0AZulWzWmDBar9YwNjyCXC5nm4Bs3bIJs7NAlnHHIsxHpYAGPRR91HwoM8Q42YxrQCdIxwrWiGegedXaB/3QqqRNL8l8ErxWqeOUA5l5rvEZaS1N7CPmEE5S3gk23ZrfKW0sE4Zycd2XjFs2tdn0bM/YYokdqXw0USrBstQqdCkNyp+XxTXyl77+IL71/aeo7TciTset3aWAbLCnP9ATlLMDqA/YNag358SvpDVWvkpVc9CrbvUzrzsKjsvpLS9PCt6zrjCemhGu7iVqiAIz/ehzOfxv//u3uqHoFoTjUxQiJWvEB5Uo61LxzQqbe6dmkUdqtGyygVbxJG6/fqftdK5JJO1wC/UotRPBJNJc3zjNENnjxWLZJuro3RuuuxQfvOdyV1j1Am3VCFPERorgkF5VfMHoXzAuL6cooLZATlL+9KwA1A3HTUssUbDPvLqAP/7S91BjwZ2aryM1ss7sz3Qmg8LSgm2pmklUMTbaxm/9xr3YPAZMECge7eWgEMxOVBr8wgn6ZGU7mo2uQrV70sbAAu3Q4dE0pqkUnnlpn327ZKlAe5jpT9BcM3OrpUZeaZcc1EK4o+YZX3bxDuzZuQnDLIJGg45rRNpLhpefb1+5OJ3GI2UXpx8jpTRPO7gSTdreFC8drOMbf/Mojp8so9UeRig6hoU8DUgqKn0P22lSBeHkG5BCdmbD2SQzrqUNuimjKCtvnE5ypDmPbKSIW6/fht//lWs8+nmyjsx/kAnqWq9+mO8YiM1mDde13gJLFOo3vn20+9VvvMJMraNmoPahFlB2VDjmqJAktMBpkbaUxpXgw50KKksnsWt9GuWlEwhHqal9EGv/XZHmGMelZplDuQ3pFG1ibfIcqeG3fvNjuPyScfuwdquaxzC1o5p+c5SU7B6IXVNtBe/TShCLlE7tldAMe1iqsCn91ku4/8GXUO+MU/FMoBNJoVSqUBsPo1qeRyJcQHHpED7y4evx0XuvwgUjHitcGVX7uA5BrHkSZjoJPH1SpbLWwZAgYsvE5BDztj7wwcf245vfexCLlY6N9rWoGPRJM+1IKbJeEwMvS10Vh7+jBMVnP34nbrzmEqwfYXwEe4ROoJk+IQd8mWCqrJo3LC2cWyzRnBuzflqZJnXG/9TBAr7xjYfw2r4zGJm4BI3WMKZPV7Fxy26UCuqPYhjSumIJTkdJTqc8rkXLQcy8GohzGFL35PYh/He/d6s3xGRpRU5QN2yiFfMZhOtD4q3T8kkhag7YBDLsQ4dPsvYKvPqISdBPeDYp47bhHW9LQwrs2lwlld6EcGQKk+v2MqkbWRxbjTtdx21yC9vYfO6gycDf3lZqpQvpPUfxre88gZf2u2+AdBi/FZKv7YwYp3CiOWnqrB9M26A9bCsRyCpsLSlS5+FQGrj7jr24YPM6bN24Hvk5ootNaaeT5ZHGc3uIAh7l7yG88MIRPPbjF1CgXeRp69MkNTCbdrHiXDnfNxCl0iZnxnoO+L9Cs+rZpwsMaz+1IMEZ24LM6KVIj+3h+XbavBsIqnWO25Pk8T4zXaentVzIbdSnnd4tHspAO/7INXYkk0PlR5UQosx4mb41lnJtvHQ4j//13/0H7D8xg8mtu3D4VA6LeQ+X7L2OcTLvdPZkw1CtkFeUtYFZtDaQjSgHm0uhFpoYCIWTOHF8FqdP8pIP3uAoci2W44HY3ioxcdafqBmhcoOkzdxKDo2DOwCvpH6GlDAB2U1ecb+HhkeRyI5gmu33CTbZ9dAobUEt8R/jm461g2bbG0aLTVo5nMapMj3Z6BQiwxfgiRfO4LGnjuPgMdpwbbe7kMg5eywdlqKLl4pJQDknuaZZ0zG1Qllr19ZPAL/5a3ey6TiDDVNhtBpzNqk9t5SjWZMiCIaxbt1uLC2G8YMHXsAzL5/GGTa7LcojFKPtaEsdRL45xTjkGCJEe4VHdWmpxWlQ89f46IsHgO8+/BpeO1LD5p3vocOWoR08Zj0CRU0mD6XRjY8R0BMs/ynHMf0eoaYesSU/6rBQrEELaqtjBBiyKRIxr6sPOEvTRRtcztMCOnSqjn//H7+GsckrUakN4xhNie0XXsln1mPf/tMoFtQP7BPDEAeVMaBB8K1Kao2Vlg5NEm2mI/saGZyeL2NmkaYLg9UeyE0Cy6wwttyD9JZBHGgrq9HQJ6FohLMwhOKFM7K96ESwZoUkvYCU2FUoAJQTQgvVZhkVAqaZpFecSqIWowMXoWPDJtg63H1Wt1KJTVE+U0V5PIJj1SYK3iQLdBce/ckcHnz0qFWofK7KwqNuY2Wrtkt8l81xvcLmUprYdT0FHAi8p43JIUpOxwjjVydefrGICzcDv/Mbt2Lj5Byi0f2Ix6cRYRMo6raySEbZOnSmTEt+6VsvYLqaph6nZiu5DyGaicJMC1RapKo+546Xt09t1bwiSt0KZqoN5p2O1PdewL5ZVsDMThxnS9OKr8diI4Jik7Kn49ammaUG3XosqA3LbNa8eIaOXRzVVgPp7LgN38pJ0rwq67KjKRZqZwjkNPPdRrGR57uUC+V1MgccWwQeebGI//iFR1Cs7sTCwkba8pfQUd9hH/qplevIpKOIxptMd9nYtrfSoJOcRgFNTirzqE8oyG4PHMqA3T8BUiDWkKZaMnUETGAh56HQiuLImYWuPv9WazaIKaWQt5V+KhYbwCG/ZRD3yQGPOo2hs1YzTa+8uuQW/FFQsXiSGXRPLie9pyQNkn678PSO+kDVraOjJtmo4bDGg8BT0u37FMRhQ/NRedR2/+qrjCTXsyKk8fTzx/DQIzRr1FfdiSBfqaDWahNYLQylRpEvVam13lgEvVQyXtlitn6MP3ddmMC9d12G0XQJuYXXsHEqQUBSo1IIc1RjY2NbUWdzO50L4d//57/Gs/sryGSpOZmWYMZbn5w8pAjK9Tqy0az1tf/Ft47itRMaPsqi3s0yz0OsBASeuhNNLkyWX6mte1HMlkf3W9T41grZMi1zH5YTy8vAjCQ1dhrHZxZo59OMIAa/8rev4wt0YE8vqWWdIPhp+3dGGRZNB+uBEMnuViscMCMw7knsPEmZEIjVu6HtYlNMD80ztlr7j52weemmgpnfJmujsDGIqTcuwfMg5+WLnT2877UD3VqDXisBmNQX+SyRa0RlGQ7u6fz8BNDT3gxXe/JGtfkzz2VbJqi9I4kkCpU6Hn36FTz36rztfI74FIHg+pItpgFBiHq2qbQv2QmOtcPYrdDmCeJRAoRAVc/IFZftwq3XXUHnsY1y7gRSiQYfZStCJ7PZadAWjpHTeGXfcXz/oadxgqDQlgFB+k0jS3ZKl+ZgswDbNEcW+MyBg0v4m289SJOH+p8J62i5h1KgNJLVvaeFs7KrbY9isjXLFp4qScAxai4nWevGVLzWrVmnmSZtmECxFsWW9VuwRIX6f3/hQTz5zCumzdNDMt8YvsW8OgXpecvkY0PyUDBeJIQEyy/GFvjgwYOoUWA6114kDTUpA33bonOl7TyJQVBgLapEkzFTUWFVbhFU2jzb5pOuBeAVpNddMa2g3vuD4SheaUYfxC1qQRaoSBn2wlEWUAILpS6+dv/jOHiyZtfrtLfC4QyWakWMpJNsYleqpwFi2CpAaTN1Z0nbibSUSB9W6TRr1MIhfOjOG3Dtnu3Ize7HWFZLnwoYn0hjdn6WKCOAaLOOr9+Jl/dN46FHD1q3mbbfEJhMi6rPm9pSmyu2aQsmKLOfPDWNB374IuWoDxjShNCX8vl8k62ImlIBWBXOrf4eALDYNK87Wq+B8sB3pbWtK7TTsrhd/3yENraHJJ3wh5+exRf++AG89vopgplOLSsfIrJPXb7fPvXDMcCSrRKbXN099aVr0MucYCqSWq3mug95W7+b1pXokxQg+W2nTn2vjQZts3ZU9R+HDtIGLdRob9LZIIimT2sTqyCRK6MbqE0DNTmo2QJo0B23HMjUPio8XtNO8WE6b9oZXd8MVvdLvlRmAdEzYZNcaafx6tEKHntuBtNFYHyEzhDTG4mmUKeB6HpXXHeN1sWJJRj13UqY+kyDPmjeJpDEXRZ6jLVVjbbm82i8cCoD3HHjpbjjpktQLx9nWnOs1AU6qPp0g57UXNsM4xvG/d9/Fvf/4LiwDYqJjh45Sg3DPCQ0kMHSpVOOp545gaeeO41wYhNaYTlvToPaXh1KIlkfEtfHZPTpAWlyffloOfMdIqUVotNLsTX5vs2vYG4LNFmK+l52i+YeE/GDh2fxX77+KF47sEjFM0U7eiPK9CptPjBbouDzXJJWQEHvgAA5yGeTKzOVtlMK/K3y7JWpI/NB5KeQ9DWm0dExRKh4jh4/SbOMcfF6qeIcSYUSyGF5KG+R4vERJGPUahTo0aPTKBXriCcyjJTCDcWt87xPfpQ9u8ll7U2Rn3lrRqlxBGCx++0E7Ub/EiywDCqtYTzy+H587VuvY162OoEpbSgLNBDGSlJzK6HKBtdTbZ2TReqtiPG+5ldoMlCHgr1i93rcddsV1Iw5tOsLfI/2NgNuEUj60GGDWrbVyZKH8eAjz+P1I0CSZt/J+TzTR4CxAmo4ZI5O1Y8ePYRnXzzBSrCT9mCGwJMJ5LRomIDSIlGZMlbRrTKz1Qu0sFgytqOYuQzXbDJNiyztG2FZpdNTLJpRVFiRHn54Gl//xqOYow2zlKdN3IjTkYpi3cYLsEAnVj3sEtEqYnrniJUzElerpd5t2b2ux0r02muvdSs1TboCJifX9a4rbyYD1+USAGktPgcJUHxEFVUt85nZxW6BmjAci5tNLIHacUWtO+v3+cSnd3rv6eg0cdCcOq3t7hv4VPjUgpHEFObyHp5+4TC++8MDZuLq07yuq4bxUSgSRkAKhjqB/9Tr7ca1xIOFaN1uXW13RYHX8hhNApfsnMQt77kU+hRsrbbIOOh703FqEcStLrUsTYM2W4ZyNYQv/sVfY75AgDEufV9Z3dWLBNAzz5/Es0xno5lCMrWZqRsiazTMmQTiIK1BP7Pl2QevzRgzufNZ5s/Wv4XzVgladL6YWuYjyhZKreYivvv9l/C1v34EicwmthQZ+yijVqaHY0PYf+AkJjdsNVkOatqVvJKUPGPeE78RqbLHYnIyu5RN1cK0+khsSpEcPnrEjjIkojxqHpyVkXwxykUS6DULAZ+LgmdsVbMxMM/qq64ZzX1usznQrCmFom6RWCJ+Xhl5K+RqoZ3Z74CccKVj1ZTT242PI5ragKViGD/44TOYn9dTcs4kON+J49PieqvBdzQQrWZXulqTGF0Mjl2DGLQk6q3QknsGhLFh4M47r8bFl65jvmvUonMEUE1P08OncDRZid59tZ5gwSzhT//s2xjiS0U69mruj80Ajz7+Ok7OVDA6fhGKFSmALN93oAwoAI6BRPcCG9gArcLlJVUuFo7mRKjfWV1ZboZhHKw7OD7XwUNPHMCffOl7GBrfhZkzbdqh622723orRtszhHWbtmKBZbsaUNei8y3r4DmNXKrrss1Wrd6k1u9WWdkoeeKoTkDpa1qaZBRJxOxTCCXrmhuY70G5h9wE6+XgDX73r7sCDtiuq5aTm6xF4WEWBBP1+jTw4BOPU5705On8NNosHWoYs3VW4YCC331QkvwCEQUaZ5nmIdnghZp9Zko2ret/VAC8z+dsyY+8fgKoWKE+iUwgl4/iy195zCaYxOK8H0nQeWraHtgLi2eoKTXJU5q3o9nKdKq02kNbzhICZE2GFPXTTyckTlOqWWdLVMPIKHDXPXuxfRdNGe8EQTvLSlLDkJZrUQMWS206UZuQK2Tx9LNL+Oo3TiA7Thv4JeArf/METs0xxNhmFIoatRpiWmgqMQ9hpkKdYW4eMmXPgpd9rumtboAgYWlR+URka0g20jCUQzSa4VXbjEodYjhwGviTrz6Kpw4tILNpL6YXGG5kvZk6+vyw9iNWuOqX1fc2LK/WU+PYKs8avIxUViqH3n2dO3Zp5bU200nuUnbUw/BiFbYaTdrxNGm6w6h7GzC7lMW3vn+U+WJxaaoA1YuxX94Wko3XGwegXZsCAAcdzTw1JaApemdyZTZHbGaZcXWoa3i11VIXv8B/vuQyfv40WMEGyQlKjo2WuwyNrMNSrolobAKvH5zDF/78YUxTI6t8KtUO5ubmMDWxzuwyp7UcSxerL9Q2KOy6raVUYYLwRcqnFaCnKZk1XH3RFD70/huxe/cUioWjfKeE3PxpdKjlt2zexnTUkRnaQrBuxHcfehkPPUW79KnXcOJMDQslTfoR6GgfMnwrJMrDjbDJ/mVOBQjdE4hXaGmB14bLNUuO5oyWxofimucLaCjm2Vc7+P5DB/HS/iJOzxOooSneG2I11ScoNHNNc7612w8rOCkA4CC5lm5tfrMkrJh/Qk81HNGZeiO0kaG2kaSCpCY+eirfXSKU8jU67Uylw6nDSsjG561QBlhN5SCvICU0yJzOJUZV+lPTs9YZrY+PV+o1Htlkt6j8VUH854P331xmA8CszoNhi5ZpdJHlQRpUoIjRBvXw5HMHcP8PX7NVCura0rRDiAPbkkwDwIdIIAPflPDJ/WIapB2koQQeXqF5jL07p3Dnrddj28YR27rKbR+rlSCsEDGGnUjS/ErizFIVf/2tJ/DCvpMot9UDIieO4Zrs3SQehRkAWGkTB+aSlQXNBY1GasBB9qVWUfNgz4e9JLLZ9ThTBB57qoIvfflBvPDCGZTycsYv5nMbHHh9GSp3q5VNUGbiQL4uPY50GvwcfFb8htTDmPJMrKh1lVkqRUgtMzaxHvUG5RoHUok04/Hl7rP+LiNp5JWkwAIbeLX7KmgJYCG32NU4t1YeNLW8JxJm88xC6DW97rmABs/fMTItHrD+dpCIRVFYytmcjHKji0UahV58HX7y7FE892oTEUpnYnIjpufyKMvjEWD4rnSRtcwWUhDiShqIi89q/QPbI2iI5/Kd63Hfe69FKlzB+okIC6GBUycOWRMdouNbobA61JKvn8jh5FwNc7kGEkOTBmIDFMEpYK4EjErAscDMo0bJDMS8SnblxBuskB6r1JFjefzggWP45refxtw8NX1znIpuCrVGFtPTFYKYqWaZiQPQWfz++btHvkStzM7Gle4LsOqZOHFqFrkKkOO5Adh8AOcLWCj6qk44LL1DGZi9ooJz/8z2ZeYCk0OkY1DLxKzkdAaAJ598ygArbSwqFvUFIBeeCyNoBpaTnhBLexjr3H4HNvAbURCCT/47QcGbHUlEuj0Skhid2kl7dQIHTjXwp39FzbSvYrbi5OQYkqlhApGOBAtWEFCD7bqxGKbPtk8Z2fZP6FVQXVdnFJvEZgVd8iRlfMPuLZga6SAe1bf0iphaP2QJK1T0iQVq/tgYYpnNGF53CTKTF7B5T5hT4zSxr135vM0/9llzORwzbYzfvmDE866OcnyIwDb9AfXTa4bZTx47hEcfOYz8kqaArqPDnUI0rqHkJEZGNtKRCiqDoNTlbwfmQMkoj8xtj12r4zjIv/76j/cqXcB8cHU2WnlcSXL8UjYTb9/rixhm657hv2g4jXqVgWvYPConjP/adG601VRIw6tM6iAZaFVLyWYn+qm1ys5jk/JeoJ2n31F66lpxHFU3DzXCsu2rfprUE1KHDkoNw6Oj9sWmaHKI+c5iqRJFZnw3FktxfOfBZ2jPo7eRifq7JHxbucGjWJVrJUlLuBE3gdw9o32NbXNs2s+pTgPbpmL4zV/6EJtu2nLNRUTCDVZyOo/StqEkW4QRauMJtMKj1MxR1NvSigKItHCN7BSCy88qsvS1bzBnwfpXWUCy3N2Qc5qAHnPcHWL5aVSQJot6BNhsa562gNtjlanPf6ekPBlRtpE40x7F/ELJbHt5WfPzOZqqrHAyn0vlEhpNNlms/c4wOL/UB5lUputsFqdP03EhyDXCIgpbX6UTsLSvgd/u6KoTmJ3/NIRlhat4WXAswFKdWio+RqStQ7GRwr6Dp/G9B57HyRkg3au/sov5l6DUCmnbscgcWscuP+qL5nNEsGxR01TMpAGZ97VKQfvTX7Ezgeuv2YXNG4aQW5hGtUoXKxxBOjtKp2sY1W4ShVaMfgQ1cIvAozbtqKhkSlgbIfIBTDArXsnSyTM4G7ji51Vzsz1q4g7B2+mMEAgZplcAFng1AFJyzApj75DPB7yBhg34HSMDbj8fRsxvNKr52lHtYdLVVselOr2BeAJDY3HKsopwqVTsppLpz/NpDA/rAyCa8d+v8UHz30urMso/bGEtwx06NaWah1cPzHb3qe/GG6JmpqMkda/9JMLaAca9rZZHZ9IRogDAaglE7rEgJv/meVC/SQ/iCQLWb4IrHEKhWMDI6Diqddqs1SbWT21DoaDhO1bldgGHj+7D9h3bMbkxZe2QHDtBRXL1qJkVYhCL8m4Atm4ud93lqW1RSnNbM8/3ZJtq/dvWrVPIs7U6fPiIjWaqZ6dE+65W76KmeR8El+0kH2XIXYKXAA7LnGC4GpxwG5C4FDig+XnlMUjXSnJdWcqNpsVKK+tp3+wIseUM1ch0Ci0P9mdVcjEN0vIHV973XALfmILmTY/r3Cb26BhcdIpE35NuVnL2EfXrr9n2+XTEY2sXRXmxgv//v/233dB/+o//p3fffffh5ptvwa/8yq91/8t/+Wp3bm4BuVzBtt/vUMs2anUby47SptQ2pPNL85ibm0WxLGuYIqLSfeH5WdTLaZZDwvplbekPUdoHGJNHlK5mE2tkSbycVqmVa/5eed1RoF3EiVSKAFb/Ih2s9DCWctSGdArCkWEMrd+LxcYo/uJbD+Hp10u2JEe255kzdbZSSetvdkuGBArHq5VTmGDRvmJakGlhs1VST02L8htLAffesQd333ER5mafxNhwldbCHNKdOtJ1mjvMf0zfZyZL+4Zt8r52FaJJMUBKhtPFLiXurztbjXoyCM6pheta5JqgNkvWea5NsGVS+M/oJZ+C32fHMPi0Kh3vD7Cr+X12xk2fe/d6Jt/qZCLnM9K+mkx27NgZzOkTf5YgD3E65Au5OcZJUI2N015qtfHVr37V+0e/9Cvedddfh9/+7d/Gl770pe6rr75qAY4ODaNSKWHfof2o11kokxO2ODJf6tDjpUlBGzOVnkQqOW4FGGKzLS00COK/K1JPbzBsy2bGXZQQKVB1U51eoAbMbsN8OYS/+Oq3cXKhZmvpQmzG2lS7DjJ90puDJCVik5GsUNxaNQFZbqFIG6uocMdHgdtvuRQ3XX8Bjr7+JDZPJJH06jQ76kjQDtFHXULURloPaHtmDJDZ3lZ6+sFjwD0aPF+bhLEUy83t61G1MlyZv58qWR7Wjl9lpumsKqdCqWaDRZotKQzGE2Hcc+8dzoOrVMtIUVPF43E2b1Xk8wWbx/mD7//g83/+53+GQ4cOdUul0ucyQ0Of37h5ExIZarVqDY12i8BN4ekXS3jy2X2fsy9P0hqsNyO0WYZQbVDvRTUixiZLETGtVrlY6lZhfYBbg+j++9Q/cxT8tlBIy3+vrCi9cC0e1X3/PV3nf+pRHghtX0uUSsx/OsHzJk6fOIrRbALjY0MYGtL6QC211/sMi+867cCKYeG45s5MD7Y8+qWjVV7+Uv9xmBIXN5u0o1stmjQpDKXGcfjIcbZwbRv61lTLSDyKWkMLXWVjy49QwCyeTpznVOPU8MqPYtNEpIB1SUaCI+ZL13w280E1juB3yVa6tEIlghbtSo9hx6K0k1sKS62Lux+EF4Sqd0XBb0HO5duxwj0XnXW3d8E/sQCZUJkTgUnBi3KcpRxiNNviYfoJdIy3bEh/7pKLRj+vL7Nm4hFkksnP+xOAQODmjfVz3bopFuCQdeNoPucX/uTPvN/93d/zrr/uevzrf/2vu8ePH0c0EbM5n6UqcPTY8W6+WEeuUEWZtUWamMreJuXY0K+lUuRrw2Ua5KdBLl7rtmI1C7qu1Fw3u2xa2exrt6FihWkNjeJb3/sxTsxQFtq1h0DqTSQnu9FKVk4FxXNtN9BrRi2fAjRbIjGvdXlfwyiaKBSixs3wkasuW49Pf+xONCozSCdou4RK9CGo+ukIhqmRCX2TndemadaWLXwuefHeCnn2KrWZadqVQ3vFaQmU+pw79rXPbHKCPIVKXuaAwMKQLA98zR3OIpe7d5mYlqBbVV2bGpLWSvKRsXFb7HDoyDGUCTEz0zoa3aO81AUWoxZI8oGwRkl4I58vmkZu0dGIxeLYe9ml2Lt3L37113+t+4lf+AVv5+5LUK5UkUyk6eWG8KMfn/zcmaUuKrUu8gW+kxi1zVNc8RHIBh6Sagi1FOsGSYjw2afVzhxJur6EjZb/7hWaT8Fv0xA61087VdxtsroTZXPyyBY/phHGagXppKaT0m5utHDi2HFMTa7DuqkhZON07CJ0jhiishDyNa0MBu2rZn3ILkqLYxnreWWYdmeYcmi1aTpQphOToygWSjh0+Cga+n4J5ZhOJfgsm03a61OTm1Eus4g0xVSTjhmB08TLyWWN19XqKD6mS5pfMFBXJ2hjzy8cRiRcp2JKmVlYr9AGbnosX6Vfpg+f64rVcjltPhiTn7W1yeQRpOVsPot6F92JiUdZsJZRwUlursp0OywvAjmdDrH1oN9VO4Obrr3081qM0NEEsyjTL+Aq0yJ9pkCkaXEjoyO45867u1dccTl+6Zd+yUunMxgepe3Moiw0mqg06ZCk05jOefj//fsfdk+dCVvXVZ2aI5yY4HPuozKmedUXqX5Pv45r4vpq1L/85uq7m4XWJxWCyDQn2SYK6RKBpHlctjBTGpksO1Nfes+mhlBcWsRQvIORWAPt0nFsGPfw+//kU9i+0fx7gqLFIFzfccRvohW35jCIFFcQt8jyYxWYzOZQs6+qrSbKrD+R+Ih9YOU/feF7+MnBMkrdEaTiQ5RNBpUC0zC6AQuLZbYSGhLm+0EeVlB/Lkc//ijLUxNrbGFlu4irb9iMI0f2Y/6Mtp0dZ7qyTJJYgyEMI0wHXt1sFgrJaZkeBaURlI/iGSQtBn0z1Hvf17jqojQZBX3ddtWZE8KKPj4Zas+zPh7GhuEy/uD3Pu7t3EQFWl7C1Ig2cSGSRTIr9uzZjV/79V/p/sVf/kX329/6Nv7si3/h/dN/+vvexs1bMDwsxy6PM/NnzMYV+JsslJkzZzA9O8drjDAaR0IzvTU85iewL4I3JmVuNX5D8gv5LO7RYBoceGVOaJqkTIpWpIB2RKuNCYhwmsCZZKGux5HjDfzgwRdw8kwZVWo0DXhqHohpWIYi2atg7ahrxhaJoyANOlKjaNlmMkL7uJaj31bAuiHgfbdfg81bxxhIjaZbyYbrNSuuXuugWvOoUIYZprkuq1CQRx1d4btRNFYwJszShTq2bx/CbbftwtVXbWEy5lghS7ZJiUwc9WkH4BQF8hYunSNJVlmSg/LQ84McUHB/JZ8XLSuvPtlgGbWG5uLEkyno40X7Dx+zaZnajEaz+QzE//Sf/tPul778pe4Pf/hD/NEf/pH3gfd/wLvwwgtt1lWxWLTZUFrnlEqlsWFiPR0BNjnhOI9xmxlWo2OgPYg9NpOIusGOPrnESaBme9mvd5KWF2SfSQIlz+XtawVGvFNBrKsv25eQ6BSQbulYooPQtl0tR0ZGWFHbtmFIqRLF8PhOPPjoa/jJM0dwbLqGSiOCuuYZsHAHys4o8C38wwANgMRudhEn0PQZ39m5M7hszziuv3ILLtpGxzpcQrteRExApyknmUf8T4MpHGndPvXzaIrMB4FO1VraPh42tlXC0pnDuOd9Y/jFj1+MTSOsSN15GnqziHtz8vmpeGUr2+skvxeEfo2Aq56Lcyna8wbpaqQ0+3nrkTBCFiloTZNt0q6P0IlLpIZpxnY0ONWNJSKIJ1JmBoYF0rvvuevzF1988edlF2vyiPSMbY1EocuAVgFJy2iMSuuzkrymvW9lhTz5bK77wuElarMM7UYCm46cPiBifaUShmkGhalEyUo1S9XY/WEWBAqF77N/uU/BCz737zshOO0nQTiQuN8SsLRRF9UCzYRIlwBeQqwxj2w3h9/77AfwiTsvxMEXD7N1WcCGTdtQztfh0bRIJbIEUMd6YRqswC++cgjbL7oUmSH1YFA7UjMwl2RRkCjlTId+6twVsqFYoGIaWeqRiPuqaoK+iJYabdk+gdnTJ7AwM09nJopUZtIGZSq1Mh9v8HmGKZuV4Sgok6HJ1P3WOKRilRxdLJIFHbpukeJZwAWbE7jzqg2Y1FrAG3aitlTAodefJQAWMTqRIVD4rkBradfAjvwY+kfKluIgB+dGesxnJ3W7uTb5zwaP+D/JLg82MGT/dI1X/N9WQawPm5U51KEJx9+s2OvHR3DBtq2fH8qo44D51ArgN0uWFf7R6OmJk/Tiw/Si6fjYxEEJ28gBbLn2cLUs0MhWtu80qWaLTbwSkvbObFLDLSFLW7dZOIG7btyDS7frQ4jA73z6bmybSuP04ZcwlOgik6FdT6d2eGQCC0vUULENtP8n8e3vv4LT87Rl07SoGXSDqsvmHUjI1iXm8hlo5LNJ2o0gY8ko/8q7WogIm/WhaAO/++lbsWf7JLV0HadP7IOWOK3fNMzXapKqHwapl7+ABs/1S+v6lB5WMqYvQh7JxG3AoFnUV5uAD9x5Ge557y5smmpgae4VpqyAqKf50m6gJfAXbFPCc9C5754nLctL0AK4ViCIQaaRugDrDaKY5t7CUp3+QpXmq5RABCF1lwVkNUJs2vNsNqInq6D1s1AADh44aMPUWmptO5nzujo+rBbpSSayZ0r45WtHS2TAClHid+TssT6vTcr0YDgDZE4COdRggZawcV3KPrL4npsup324G+P6mn0KuOoKffLrSmQTeVSKh3jUnFyNkglwGuwYoUN7IY4cLeHBh/fj4FECmFaldh9qEiDtSI1pXN3pkgyMe+cunZKlzbPwOclqJgl86uN3UsNMsIXTvm9F+3JTt0Mn1ATmZCQWuAJ2snXnSoPKoKVPIvBc82EiVpYNazWs9eD1Hdsi+MTHb8ONN1yI4SHKpzHHe4uIhYpmL+v7fdosNnC0zpeC8lrJb0x+HH5ZBubEMuK1jlZ0U1rTM3mcOL2oDFGBxhHavHmz/9RyGgTySqLja6QlPqdOn+IzNAcoPPcRRTYufLeXsJXUS6iEz3j8Y0ADp+dJDE9hqvYG54pbwpetx8KYmohhcf4I7Xnt2HMdtjPLDaZdu2bOnGzhlms24CP3XItO+QQ10gLNiSZy+TOmjetNAiE+anub/fCR5/Hgj15Gtal9I2Qfu0EPATRkAD0HrVYwJBVYm3JbmCli03rg7juvx55dkwTWPNN8mMAikOlIr0krQOZkTwnQDFKftkyRaiGPYRb4CFuZarGEeqWGzVPARz54Cz5w3w2YmmQFaM1QVppllzcgh7plA7LTyr7d/a6TX37kQaWn6xqx05QBAblQ1FdHS25MM6QuTnXYE6hiu+YDdyWLzOtVYJSbRm/3v04h0xyRR2yzu1SgOuez51cD3y4pw0Hz47OuWcFqqZDTqsMZaqr2PH7pF+/Fhdu0ASCwTlt+tavYtCFin6f9yG1X4/JdE6iVjqHbWiAI2PYqnHDU9gJWM6bFpk88exgHjhJYul5p0amVfXp+mZX8AjmLgvm4SRbE2FAWNIFx+SUh3HrjbpSKR5CMa/8OrT3TejKWKMvKeAUxx31aUVmkJMaHRlBlpaWdgZFUHJkYtTUdpglaKx//8B784qdvx7YtWjiwH7m5/RjONqmxi2iUF/gOHScV+Hlo5EAxreRz0mB67XyQfbJyVfnS9CU3u1Gcnl00JdplazPwZJ8CULuumrMfUY9PleU6Pz/f1VC1aWFl9G2QMrsWFIJmKagYy5tppk+Zs0wqsz5ZU0hNTBC//tqT+MRHb8fe3WOgMkYqVkepNIuRYToPjSJoVWD7KPCPf/XTSNIWLdFuHhllA5ubZrA0jmjzynyIJAmGehxf/9tH8PxLS8T3GIZi46y0rptyGVmhB3xuqlcaNkFoasi9duklE/gYtWR+4QQS2rSXmvqNyGmus8tK18KdmE0RjaoblA65Vhdr53v7tAefuWJvBh/50I249aaL2GqFMT9zkPE2MToSR6tWJEhkrrjw3jVaCeAVeZHhZTvn8140GmfZFDCXY6aYD7aCfbCezU5TMNv2OyDZVdq79vip00imtRCHcUpT9ChIzJsn++Yv3xXb5HA7Z/g+B8O/xgSXgwnBq2XrvXiVOYFYXMMN1+/FLTfvZOFpuIGeruy+kOxOfdKrhjDNA5qL2LElglvfc6Xtp1arzjL+HBqtHOtIzebcqmcmmhjDa6/P4P7vPI1yRSGQVKMGyNnIZA0gMI0rSTKXDyEwiWXP+rqGv7u4YBNw6617cNnurWg3KOjz0IJrkiq2VkJLJMxjqEMrnLLSiFigOIaolG64cgx33nkNrrxiB1LxNurVJT5bRTqliVznrkSDCuadJocrYTFMc5Xp1ZG/p2cXaBvP90r8vKhfE90rVRqEcwuLLJAYC5uCMlWvo4pCbsQa1NNQ/XON2GgAxbZa1RVKROaJ7tkABO/bqI5WQIZZodQnTRCoRdDqWAtHz8mjph2nBZniCB26GPL4J791J8ap6cKNChZnTtH+a2M0NWpfEI1EpIv0fYgam9MG7rv7Wlx7zTa0mtPm5HWaOdrFDVYeFWbCdvMZHt2K6fkW/q//53vI2UJTBmBAZrp7hRnk00/fGiS5ZtMJVMqqOBWMxRkGK9WF64B/9lv3sg6eorZcoOLQRyTcB9OlGTU8HaLsteedlhdpExaRNK82lFGVsAnwNo9Yb/gKwJ5yf007M3597lYq4PKLhvHBu27ADVdfyLalYC3S0JDi0gck3XwT640ht/wK6iqpC+8t0RqyWVkxpEwDRRkJx2w+RW6Jyoi/aTX0nww0b8B9CiJyWrHBny/vO4C5xaoNM6twtSuZsdaNEV16XzZfYPedFa4lvgNNeLGVDB2C2Ix0XqZTos+BmSalppRNqGfdej9lxmVI17U7RDTWRKkyg0rlNBKxEkaydeRnX0Q2ukggfAzrmKREvY4Uo14/vgHhdop2cQKJ+DpLu1qukfEEsiNdDGWa+G9+515cd+V6tApHsGk8S5t1jBpxhIDRjDwKsBay3XJeP1bFt79/2j6Qs7TYUP1CQ7PVmDLpfLFtXsK8WmELYAQXG3U7N1Z2m23av2GaOfS0mfcRhjNKOVyQ6eJfEMjZyGmMZ3KIeGdooy6gWs7TJ4kSXENotghianMBVOWjGR36aEynpX3d0ryXQidCc49h0hJCLU6FEZZLpCH4LuI0VSZZk5IMM91o4lr1XNC0uPeuyzE51cLszHNIpdkSYYmtEh2/ZAv5xgLaNDciaeZE3rGUDMNQ2QY9LqtxYKbyj72jkTg7X0EB2gKyloAylJ7oEiMa0RSQH//xE2bE+vX3fMnV6BoxlctXuy0a2C3NsqJ26tulLsgVLewqpJAEYKGWIasgWID2PQa2e5oso+8ieZ0KNVMRrXoezWppBRfQqOeQSDYwPhbCxGgEmXiTAD6IsXQHt9+wG3t3xhFh4USadPCSCSTD/K2JSb6TYF6v0qpCMC3H+DoNvP+umwjkC3Dy4EvIpJK211yj3rLv6qWy47YnQqESxcM/fhk/fuI0JtbFcIZ+UIitRdCVJhKA16ZA/LI51QPgRhfjlEOKMhiJt3Ddno340N1XozC/H2ECeJIIV3PfpcPl0THVgF6Xzb77KKSbVB9joUcZr8ff7musrstN37q0fc6oRaUgNOxMH8+ctzQBlaZdpRRduB744D17KYNrsX2L5nIcxhAVw9gI27nyDLZsnrLNYhYWltBkBQxME1NAb5rOJZ8+CfyudWbSqSQTWh3D5kfzT0wTL9OQq5DVABaMbBEFo3lCp2byrJ0JhKJpu76c+NsH82o02FSoe0nPy0Fs1quuEGkiREMNJMINGxIeSnYxkg5jMhvDZCaBcc33tWMME5kwlmYOoEUbtklemjlEp6WKD993O2694XJrJtUnmE6nEI+y1dBOgqTB/MqI0a460hbaZ6dZLeOSiyZx5x3XY2IignLhGAtqCcmE5jII9GHkSkxrIokcnbKHH38BL+yjiSWbk/U4sOvPRYFWEgdNKpNgHDjJEar2FOvbbXS4brh6F9KRGpql0xhNE2ytWTpdpwjoIuLqFvNyPhf8/l46nkxzlCaVmVkKm2GaRcnzQBESjWZeRZkvfb6s1XTPbsoA773+Irz/fddiy3o5hCcZ5hxSNC0qi2dYFuPkdSgu0MQxEJ87v+8UCcD67IFW52tR/fy8TKzzIIFYzZVYDbtWN88XqrbkXKN1b1RgjviSFVZwFJBZKWQW0EyIR6KUZ4MmBbUDAZwMaZ4DC0RNWHOWtuEsOtQCYCGKOzQdOjQhupVpDMfKWD/SIneQjVdx3WU7cN979+DSDSwsJjiTitsGzR0fwCE2SSJr/sgqXE2Ekeeugp1KjyLLLF2wLYV73ncVC/k07cMjyNJa2rhxPf2BBr1jgiORQjQ7hsMzBXzprx+0mQq5qpOTeiycXGRCKIY3oBUaOwCyNO26UeBTH7yFrcokFegsgbSIeHeWWnea2vMMK+0cK+sCEt3FHie9JWpzgZh2f0ctGkFLDe8+heY0fpgmW5iFK3+EQrFhXa9N27xQxgLBMUmf/WPv3YEP33sVJtI0HXNHMZLqIlIro3xmFiE2yTs2bDW5CfjvHlGOvr+lZWKNuqa0hlDWRxtpy4U/97nPsTBdga5k/jHNqz0N3MRw29werxyo4/4fPPU5uke2b0Kjy/rda0JVYI71zx39ArKcqmg1sudG94QrxaV5oXUKR7u8hLtFVHInKJw5tOuzLIQiEmwuY10t5akh7hHg+po9NU+MmgfNBXTr8zh24Flcf/kF+IWP3IWt62h7UjPSbKOmUrQyUwbyxlTZSCPPw0oTn7O2hvnQsG2BZsPYSAxbd4xgqezhxKlp5BfzWCRrtUpaHzOnnVur01mcz2EpX6JZM4EtW3ldJpzF12aFpPAZsrR80ONjMrF0uN92xY58yq477pD17MzpPCbHGGcyhf2vvkhg095uFnisIZ2igVCdpqxKzG+NVYdyCpEjZd7PI4kybrn6UlaELNLxELU5Y9EsRBUJy00UIsK9sErJlU+aZlc2HbduONGOTaOYWr8Oxw4dxdypWUyNbWaLFkGzJpOFUlNrylf1tv4oJy7ljt2fPqnc3YN6wz3rsKP0OMyp1nWlgfQYnVNbrKvvFkouNH+k6LoNlX3+c/537JZrgUGSk6IpJepeouuFCh9/6PEl/J9//B0q0C00K6dQYfz9r+iTrWlhAZmXzDNLFcm0jYwP1+tgdhoFIOAkEzFU8jkMU9uFmnPUzDns2TXBwqImJlhMSyJDsCXNfpZDGIrUzb7rsF0REBfmpnHp7gvwqY++1zSqYheAnRFkKbKj6pvmOvS0h44SWkcb2QHFBk2ZVBZLxTK8TBYvnwK+fv8reP21ImbO1JEZXmfp13J32aGN+UVsnxqh+VPBHe/ZjV//+HZUWdv1Pb5hams3m6xPJnNfRu435eIDapCcYtDebK6yy/A6PlPG60dPIpkZo7aOoVgpYYzOp4XVSfGvKoa9RrCU2cI0sD6Txtb1MaQ0J4u3WPB8ls9bTxKPAoR6GnhuZp66fUg6V+/GK0ePY3LjTmpn4A//5Jt48ZUFZIcuYpLHsZBj65kZNSUXmIiqgIPkQNun4Dme8WFn3jhNK+NP6CCpF4TylFOnyWS2AJcNhmb/JcMF8iI61SO4aCuvnwvEDnKaK9GhBvb4OoHGa1/95pHuV/76aYSjF9DByaDFNs+6eAKhBCDWkXw+IE7Qy60V83S+2vSYF3DpRUP4J793Ne00ApHPCXDSrH4ryxD8aHgvV+hg22jIhoHnZ4qmdSJ8QTu6W7Ks+PmoL1x39AMyAQYyUE6BEm3zeDqNxdIiQpl1WGBCX9oPfPGLT+LAITpBoxstvwKxup6i9RBNkARqpRNm1vz3//ij2DwBDNGeT8l/ZPUXBS2SzCfJJzA31B9ucltBweSpcqVs38IL214LYyjQwUymtG2t222e7kGP9Iayo84dUZRBqydfX8dVDB4dP0+bPFq+nZKhge2D2FEwSV3PSzkV6LwfODpPbbwFNVbOv/32ETz8o1dsJ6FYZgNyLTq9tvrE0TsJYiNeD/af1oQp2fzpaA7d2iFsW++k+IbksueyqPjypaLtvqKPUVut9cHZY/6Wtx2cG/WeWZ1Umcw+ZQFXyjnklmbYXAELMwsE9xIBsoA6C7NJe1SLBL12nc0iC7ZVMgAv5FnQizmChu2F16QGpnAoCDcDTMUtDtIQpINHpcuYv3hUYWoOb4Gtwhi1Xauh+QP02HfScatWMTk5yUKRaeVY3/IYmtiA+VLDdl4/MVPC//5//CVyRQIoFkZJn/5kAfW0vkkwIIUc8GrkridZk4cyScKpjSKdqmy0izIjqDLPw6zkKnqxsMx6gyij1Ec6Q40mjwQDfzeIh2KujKX5JT7lxykwGaB4bhrBkUDlcCybmWGyTK6+aAsyxNkYa8Rv/KMd+NTHrsemqSrKxdfYUtKhtL55t45Pe1nYZxUIjTbNlz5o3xrJ7NMqlQhNzlazjXKpgkargyKP1YrWEJ4XBYXuSB669jW21QMavuN9aZkeC8AERE8YBuDVSX3DGsHScpqwlvkwx2E2rXHGkaWHvHXDGEazMXIEI0MdjGaaNDnqyCZaNgdA7HWqmKAnNjUax8RIgvYgmyDZU4xX22W79Ls0iYOeXL+h4LlrCrWmVb9DVF+Tw1Mo5xkOtYyk9IU/foIOXRPpoWGCmOmkreu+50FNRbu4RDvTS44iFFuHIycq+NvvPodj+p6f+qFbYQKOBV5w+3T0idqYFUGaK+hTH+xbd8cwwpEkZTGKidFJjI+MI8aETibTxhlmKdnsgqYxKBIaXLDJPuNE9QSd2aFoBAkml9YaK0Iao+OTlAGRL+fWFBBZZcBjwKYR1fdvq6xjiIfoFLfayPC1NMOSdn/fHVN4//u3YdP6JTqSJwnwAivZIpYWj6FYXUKVgK7xWboTJm2bW+NzgAuBz/CxgnR9kCQLdb8Gg2EqS01s0ieMs1qe5F89J7mHHBAE2elTxxhyA1rI0W5WmRDdE7lnHGgHjudB0sQhClDepyYV9TPqKoY2ula/pu0V3GNdk7bgOe9pY1T78iev93YStzSsTbor08BNKKd25e+Ql8A87WF9g0/TTb/61efx2oETig1NagCTiF8DlOaaKmAiTTuYoIzQgRrehGdfPIqHH9+HIlsTKgtWqgTNr6QJXqSK48Kwn2dRoL2CY9Aka5NpLWG3Zey85rSwZyNvYg1gBiwtGrD/uk8CA+MWYHVD6dDvQTZTg6w8WhiSs5NvVz5It4yrLl+PX/zkbdg06aG8dBBxFHHpni0YUtcO8VGq5tli133z6c1RUP4qIU1WSqbidPwr1kqOT4zZzL6UrtH0U4rXJN1UHnVUtql3CBRgdJgaIBmh86WmUiWkgnGF44jnA9dMy/kc/F5OtLwJYjc/w2cTrCi4JqEO3Au4d58g7NmWAfuktPTSs5L11zcPdCQkqvTuqs0oNSzw4mszePTxl22ftC6BWKE5I40g80AfSVe/s5aWJ+MZVMsMIZxBJDWG16mGn3jhIA6dLNrX+dv6sj6f0TfZBgdDXEH1j6J+AS6nAMg6ng8Pkn4a98JViarK9mlZf29PZpTPirA0kC1QTw4N4fqrduJ3fvWDuP6K7eg257E4fcAW2w4nPYzRbo/TpPOt3LdETlIqIbfIVxyPhNkyqDu2g6mJEXvmnKQH5B7pqI5yZf2Ky3Z5I5kYE63NPly/hdEAcFcrBNFKgUjY/WtBclzS+wKXRliL3bMBBaM650uu0Mg8agaBdL424Q6nYzhBc+A7Dz+LUwsNgprNjjaHYfa0hEuCVY9JrCM58C0vznus5vqMl3pRkhM4cGzJ3p+hWdJg7W/RPKgS9JrroCZSMSuPkpVaIvkDztFeTpJPwGo1VoL1XNynftk4Wg7gtcg54M4rCrZeiIYjWJdmixOJoVmo4JoLgU9/5Hpcs2cTarkTKM4dRaiWwzCbiSwddg0kvRWSXKgukAiHUMnnkU0nad9XUaGPpGH6NrXwhTu2DZT+qsSCpeS0QZxMBis4BnzdFeuxc8cGnD7xOiOR46PhSt7nPYOEn+a1gLwWDYq4TyoNldwAcF0sPVbTHLCBcY2CVFdWsIzIyAcNKzRvuksVOkRlIuXYHHD/I6/gOWrixNB26OPfmvxj1kSHzSqPAnGIWjvSJnjlTEXS9j26SjOGocmLaFJuxo9fPo6v/eAneOb1PObLBHJY+2S6fnVLm5jpcCaZZKg0sskmB/8CINluluQmI1+LW7wvDt6Ro2qsc7JJWaAK4g54JQXXzfLQ3AvKioXPumdp1ELWEHkqmwRbeezZAfzqp2/Gb3z6bmRDZVQXT6JbXsBwPEQThPlTpfV5OTlldRbzjrHk0WnQUWfczbqZjCEKe3HmNH2kFK69cq+1a2uSaQcGaF4qC4wyMhCLb7rmMm/7pgkGrmFKCUcUHC3fy459coI0AQdCPQcpI6YtDbw+gFcBckAGDNOub5KYTn37WJObygTy/Q88j2dePYHRTbsJ3hG0uhmyRozc4yYHyiRCx0dauFFXQWkbryiduSSqnRSakRFEhzbh8RcP4vHnX8fpRbo7be3Nwbho07X8zl91wZkDKjteR9qdYrPQZYP6sjqff/pavj0rIPtg7slY54O/7TjwO7gfPOMfg7KyolTamE6NcEaJC22C2CjOINRoYM9G4L73bcO9t1+HzaMptIsLqBUWDPRvlTQGwBpDhzaLUm4BqVjYHNXRbAp33XErUgnXoq1KDsAu8sBWEiAj1BAaQLh89xhuvPpSNsBOCw9SAFyrAD7pNNCKJthAUP67gxrzbPKBauAcOB/k4Loxadk9R9aaWJ768faeJ2kxpTTxY0/sx3MvH6UtS1t3aDPt9Qzlod5WzZtwppXIVS5xhJUtalraltDQpKiDQKaHX6WHX+P58/sO48dPPo8lenp11pY6I2vVmzbUbrO0/DRJ5v10riT3jAaflrPiFStlzoLUuVjngxrO1cKAV1A/IEf+Oyobe5plFqTNsCEnlaCenEohk6ihQuHFeOnTH9mJT374HuzctA5hOnZyzM9NTqYBzpaRYaVvDytHrVoZuy7Yhttv2kmzdrAEByiwy3R0o0nuMRMEj2HKPEEgf+Cu3d7EiCbOyKRQf528Vi0Jcr0FQQ+CA7ULow9WlzhpC6eRl5PiOluLk3qZXJH0ZZlfcW+ArHIqbnUR8qjC0FwHrWAW7z+Yx48eexEVAljfkFtYqvElzdJj9e/SsNUQu8JnfAYWgjqwV6mKTZPrA+T2EXQvTWAnMTK6GXNzFTzz/EEcPjaPGk0Q+9p/p4p6V5+8knOsGXSuoFwFdyQZBCLzi5q/V7J7JnhOpBD6oYj4azV5rkW9Z5VXtXzKu9z6QLYMT+mkHJuNCluYhtnrNJONLtwRxY5tW1EultyFNahXzlZ+iou51MCGz9EQWzpeLpRmMDRCubZmkEqWcfedV3kTmvXAe3rTvbyCNWdXpB6D/jfTVFNYdLThUgTxWLaLP/jvPuBp9tRwyqOhPU9Hr05NXUelNIshKq+WxrcHxcmMB82jKywWGkkgUJTKj2mMs8h/nhyAJuAeSRAGrmAuxyD5aaDWa5b1TQ3WRGmJsIfjcyU0WT5y5H740HPUKNSsHX13LqHHmWeZUi7sQD7ucwEOyIF9qxZGw+Dq7Fe67AOM1MSNUgzpxGaUijELXz0f2Uwa4SGtMcmh4eWpGUo2QtUJsSkYlJdPQTYF5LP/Bak6m3ukAIx51WSz7K5PwXWfTZ4Ck5Y3aa633Cz/82Cyp+jUt6MdVOMpeNEJxBIx1In3EwvA9x46hh8/8wLC5/hA/aCiMgVpLNkzjk6CSt71U88tzWJsXRz50itoNF/Dpz59hbd7lwOwllitHjpp+dChHnOPKiLb/ojaIxWtQur8V37xXq+UP4QhTUapzaNaWsT2rRttUz59hNDAZwXjs/12he4K336+s2RzEVZkj/F5EdZuetYhTeVrtLBUKGDrugwOT1PwDz6NA0dnaVaoJ0J7yUUtqYGwXWg+cH223gJetbywVdHyek2YcsSbLJBWS5UhTcWQxcnpEn748DM4ulhh9U0gV62hKW0me3hAHoFMzpbNgByNBo99tlaGvFKz90jhBrwW2T1XSSQDkVVO5tPYnEm1txks8t4JOngv7GvhB48cxY8efw6lahcbNm1lnlaUwznI5Bww0x+mbLZsGMPMqdeRTJTw/vuuwtVXbcYQYRXx69I5QxeQbeSICRdbPy4FIm9THOFFdbjfflPKdkHvNunJR5klWt6LM0uYHN+CWpWOCTW3TdThu0EBWeH0NJsLfzVyeGAhWEGs5PMnCyeIj/lQc6/x/ibBusR7Dzz4Ipv7AyjXpVnplPG5Jp8WDFwaSKaZqHV5bdDm7APNpSsoBLvCuGyopk0w0+HreFk8/tQ+PPToizg+U0QqswnVBtNCsKuPWs8GYfbDdaSfATgda0aLG1rv/3bsljFRq9NkC1q+oBz73JfHqiyyoXtnInY9rbKh+cPWok4Q1/hMnWleyNM0otW170ANX/rK/fj+A48jmV2HdZt24PTsksksqASDpDS4fDoFINkpPm0YE/LcErMw26pkpErbOo8rL92BO2+/0dMkMZs2qjDUW2GhvQWyguJRG3JodOgzH73Uu+ayzajTjNDqAo/tsPbZ1Tc9OjYEHGgEcg+8sjPPToL2pNVEdjXlbb8bTP2/zkZfRRqrER0OCUdx9p0kArPZRbHSRKnFapwcRiobx/cfPIMnnzlIgVdoXgxTKwpwUWfX8h0BcbVCOAtkK54JKo76nzX3uqnlTZ00jpwo4PEnD+PZ504hmszSPk6j0Yr1gBzAUra6gtDcYtc1GOQjOD+b1bsh0HW6dZ7LaXQjl1QfFk4wTzkgAWktMqDTx9ESsE6X5k6XrQbD11JbunD0hBLGQ8NRPPDD0/jjP/lbvH5wnhVzA4ExxFauhbJWCpwDZq4ySbP7ZpgBuEYlWSJrZ6IcctMH2Fomcet1e7yNk1qAJfWhSqqwVUKrUKCBbXzdxtX933rcB51paDoyGoYc4aURmn8fvecm77YbLmUzvYRMmoBpaQd6hqFazOxKIDYULKLtI09eQA6SEYAicCiFV3PEeOxpQ1IA5oADrbUaD5Li0R5yFZoaRdp4Bcrg4Wfm8cDDL2A+5yE1tBUtaso6zYl2OE1llGSRaak407IirEEa1LxK6yBLZgKwPjurQZBmK4Ps8IU4fLiMJ58+BduAKTRKM2eURZJCuSXwaoGniqjLd13+FJQBkf/eiEwufuU3+QRseWCl6jA/ZPWWidci6QB7X9pXAG43UWe4+XoHs/rMRVXTfoA/+fJhPPTjQ6g1RzE+dQlxMYKlInU2W5j00ARlRxmuIj+Vhy2ZohbWwtN2mPggiLvdPIYzxFWGcRaP4dILRvGLH77Nu+yidWDJsEQ01KzWge2lP1PxLZOALLMiThGrA2r7+iTufO8N3rqJDI4dexVDY1FMzx7hg65ZMzZylcHmG5vnqya3TwKN07w8HyiMgN88qTT4lwUnUNYZZyodxvGFFr77o2dw6GSBgJ0gkNQfnLSvjsbokEQSSfuaJW/44bwV8s0JaiyBVEDOjGxFNLUJBw7m8BdfeoRamIUcDqFQ6dCOdFsDuHFQaXHJw893r9XScTVWP7bmn7D1849y0DUcb0umyKoYqwFqTaL8xZrw1WIatKay2k4ikclgNh/GV791FA8/up9KIErHjqZRPYGlEpBIT/GZCeZJrcDaEUoL52oFpEaSbBjjKFXmUakvoFg6yVb9NJLRCu65da93/eVbMUE7OEYAqx1Qa6NOAbU8yvl5k4GWhnyY2lkT07XRdIIOkjp5tOCQ7hCN8BBuuP5SjIwxKm2MTK9bk67dUm+Cyaq37EzXhdIvGJGDsmkeP99vKoGDFDh2Fr7CpRPSZhGqdYlEcSIH/PDHz+C5fYdZj0bo5o4SOGzWmYtYYohapG2z1rQr6Mom+CwK8rUak9TiaD1iAORyg95+bBLVVpZ2OLXYj17FmYUOkpko02CdkmTwnOaUhUAYUL4SSbCDusubZputwtpnQrPQbL8JnftmkYIaJD+NkvUgryRPdo1WtauFIoA1Ced16qa/uf9ZfPFLD8GLrkch72GWSiGamkJ2ZBMWcjVbwqWN2c9uFV36g9bLjULKnCBOyHHNJW0XzaS44cqLcN3l2zCZ1XdeaRv7AHa5cTlSaG+LJFyZvDFKO8HzJBN723u2eR+89xrMzbyCrZuzjET9yM5oUHeVPnyiwlC+1F0XzLgKEiOLR5OxVYgq1KbHwmUT2/Ti/C3W+SDrfp9bbL6M+Vw9RFs0lKIDkkBVHyaMUzuxXB97+gj++juPUyuzekeHLBzZo/qAYWZk3HaYyeVyGBoZoY22upjMjDgbGmdRUCkFZtm92m2z0opT00+xGR3H1+//MZ588RhKlGGLJkyd79T5rAZZ68qv5mNobgbT51iaXRz0LPdZ3XotArnbibPyyVHU86yIljemlqClBcq0+HYEyyHQ3vbT7GcCipo3mLyvd1X59EVSWdzPvdTAF7/8ML738EuIZDdSe9G3GFtPXyKC02dyyJdr9DXStI3TqFbLDHOFzaKKqBaY6VOXWjY1gnKhjEphCaPpCCZt1XodEyMefuWX7vBGh9TGyIywzlMycTfIb7Z5VpMsCqbXWf+paipJXUs12ihLVCN5IvBbP3il+4WvfB9jW6/jg+swfWIJGzfsQI1NZrVax8gINV6l5ExvJY5ha43Y0sw+3PHeS/B7v7PbVnZosaRgZIqN0Zp5HjCJprldDyjAnBSovcJ7Sq4GIZp89sGfFPClr3/HltwcODyPRGQT86WeAz4sR5SIU0VyFBx5ayCOgJZrLicb5z8EpPf7WkdTCDUDDB1BTgVSQja7hESsjE9+8v246Rp5/I4UioYXEsSAhvwVbFBcKoYgbyKzbXkuJ7/NAEZYNxV1sdSgRothdBRYXMoxzBrGh7KmNByQqFBksyoQ2qMy/QRyaV/11+rj5QvlAmLZSTrDwJMv1fBHX/4eaqEM6qYo1BU5xOcTTIsSqFyprySQm3wb+jU9mVAW1gKr1SA0KYeWp+9el5HwKhii+RBtTmPHpjh+9TP3eru28bkGTQj6U5GYh0iEYfnCVJ+1wntnQCyVKYo0QFse83UmjI7RqwTIl77+4+7T+0o0+C9Fu8mMV5kZajt9P20pP28zk1pahWvBqVAZRmUa2zelccWVWwjiMgtEk5B0O6VInECsK0ZuhcSlTnFG7NNyEAG5Ys56GtSkq0vtlddPsxnfj3VbdmJuruS+vae6TllofrBbLjRIrkD6c0T6BSTq94O63yvjt4Kz/PE5yY0su1/XtF9EKJSjMzyHC3ZswI4d61DQim556SHqYwYZbyZMztowRGFrCywLzQZbfC3HGqhBCX3NqVurUGas+eECSqU53HDD9dh76RZEYx2kotTCGuRh3Pp4pORmuo21QN/u0OihMCGbOqSvN4GtAG+rYv3oiQr+8IvfRTu2jiBOkOWEyg535eKUmTS7n3/fnFpGjM9ArOeZXtc1qG2UlhDr5NmSL6BZOoT/4Z//hnfFJVlbFygAdzQvmTKTqJltskxbVYS3AOLgeTuyMDSX1hKvdEdqzFgXS3SGmuEkciWPtlMRf/SXj3Snz4QwPn4hajWBRLuhD2GxcAaZdJq2qgtTgrXOmwgT3HJbN2WzIeTmzvCeAODAuhzEeo9qZwDEveafhW0rnPUxP80BpuAF5HI1BH2pbNOmnTiztGgtgRwMFYCo9yEVXVNzG/zsico9JwjprWWY5zvLQMz3g/kAykMgN5GuWxdWu4p6M4+4FEtHm0c3EI24Ceg20agdsbnLFi/flSLRSgfqOP6Una+hcZUFQUx3v1vXLkjKbx7l8gw+/an34+47r7OPQdLI4Lsly0tYw+nKhfIp5ztcp3z4j9q3oyHmtiY9yRGG7XT0nQdewMm5DtKjO6yP3UDMJKnVkirxKDfL41kgDo6iQBOrvEIsIhorWkunPe8a8wg3Z3H3zRdTC1/jDdPs04pr64WQicM8yuG32XBEcjD//J0BsSGYeQ7XbIskTfmg8qcw4rT9gK9960j3G998mpFPIEHDX9MVS5UasuMZFGgzIeyE6UDchZact5ipDrlZL2B0aIIRsoTNSXHayISuwiN5mpyj+z4FIJLlpz5nTcxpMa0qHPXZFnINpLPjGBldj8X8HEJxhSWNprwwmhWFoEISDYLYNKt/X38NyAIwry+fbqhSDt53IBZbWP51edhLC/OY0ATvCK3dkLNw1fNj4fE59eREQjIuGI4fvuJpqxlkZZaWCre1oFKaWCDWNlcFVMrHaJrtxoc/eANGhymHRh4pmnwK14GYRFmaBtZUTpZdS3Y4ZSo7ucnn/uSLL+Nx+hCL+QhGJi5CqU7fgyAORu7UR6CK4Cor2Tcv+yAW9c+DSq1nw90ay5fhVOfRKE5j6/ok/r///P2eJhJtHmNQPGrMAQSyw57A68J3INZ9H5Rvhpa9w9ILWtk2hanRHOkIZ4arSylqiya/+OUXu9/7/vNIZLbYhPGanAmWiWq5PlojdaiCijK8Vr2I4UwE+dwpZLWdOwFq+72ZJu6DWEvSRV1tpUX4B9+HVlOjJDksMqOyc5VhNWUCEuMONt1rUYiIVC0890wgYJ36GRu4ZuBjmAKxaWLG4T/Fm4GJ4Bei0WCY7hgAuQdivWPv8QdbmJAqFMMK+4Vkhc60a/BIFMhf5s9gixRqaWk700NNPJoRiPOos2n+yAcuxUc+eDlGk7zXqVHGtJMFDmluRtpCBXW2BpV2g45lAqnUegvvwDTw1b9+Dk8+dxhZat96LY3jJ/OYWLeDOGXu1bcrILOU+62RlFGQ34CsNCxPOkpujmTI1BBrz6FWOIk9F2zE//gHd3vtPKw7bYRFrqFlfbHKvesoqAS9ymx/3wZZIZK1X4MDjWwcN2qkYcM4Ba3FhZ/+0OXe1Xu24cypA0xElcJz/XyaEteh5Jt8X4JRb4R19sujpqfeZEXQ2HwdQ8Y1L2NORc3TOTmUojPJpi0cQS3iM88bPuu8SlNCTkid4NY+w9IaGh0ScCMsTdN4vK9/9uHEc5KvhX1yYO6fnw8FwHeyUwGpk1/sQKGVH+p9UPpblIWa7gZNo1qE7OcpyKPLb4LP0EblUbZq3WSiI69TNoLN2aRrKrQuovp0MRW6JvWvI4DPUOk8/FwZX/zqC3j65Rks1iN07poML4aRqU0sE9ffbJ+3WNnzcE6yXJMleyoPVj5tsbswtx8Tw118+P03ezIftNOS7ReiRylTrYI/F62Wu/MmB1p3dM0payEP1hQaHMn0OKMU1Eb6Th++773eVXsv4nX19VFq0iLMlApOYdgolVgaks2+5jC0NFxL4bWorVVoOrduNf52TOCzCW7SHm/5rPN6tEYnk04ij3X/d5u2l/aK6Krvmk4PwjkmlufSfj4AvcD2HCAHNp2568s1rSOBX9ddKyFgqgTWJtsXmpF61LrdSJmtUh6dyBLTVrQ0tuilB/nQsce67nNdx7D8jw7qLPSGcYhg67Ky8poqLSUdlJNS33dOHanytht0kkJpmhpJzFKpP//CDL55/3N44qkZVJrjGF6/DSfm53FqfhYTGyd9BUD2ezOUV9dCrU7CRqCphQ2NG9i75JBXwrrxKD503024/BL6R2xcbWaawtM71pHg0hzItydnn5aX1tsgBemYjheZOo2sCFoYTnuYny/iphs8Ohl3eBGNi1NLR7WdK5/WwIcbgmZTz0A0nN2ikDq03VTjnaMQJLWfKT7IP+fOgoThnuI7BiwdNUbvaz+/Ip1Ng+GuEh/Danc0D1h9qhRqz1kZIMWn8I39uAfIpc2ZIIMkGSjLMi3N4bT3BZbV2FVANbHSuHK0rGKTrcknBwByBz4QPMt76ote1Nzp5DCWqkk8/PhxfO2bP8HLB+YQS69DamQDHe8o1m3cbs74kWNHbPWxaVOfgvT3gdzPpy7Zki7GpzQKFfRZaUK0kGjrm4IFvPfGS3Df+y62iT1pmhCuZdRLLHs/7eeiwZI6bwpqAi1LHhUpmdetOaYGDbPZD3XEKT4RRrk9i+QIbS6m66JLgPfcfCGN+FOIaTcXZqhbCSEZGkGczVqzUaMJ26Tg6EFTk2oLKIk8TMFFtZVpR1szkenFR7QXAb3xcJO2YDOOMDVJwBFytBE3jtMREUebTGGL9nFHo09Rc/S0wN+aRv1l86jz5WIRiPqF4qqmiIXI5lDzQ8wGNMfSAdnJRwXB0MXUtvabpa2j3Euxm5vNCt9N0UYdYjQjDItH623JspIkWUGYL0avpUARykCsyi9OsClPdmh4MSkxrfVTqNSsbsiaGpg1QRXMbXQD5Msyn9iqUWahKM20WAQzrAeN4RhO8PiTfUv4L997FqeWgNTYRiAZxcLSElq1KDqUY4RmivYGFmpNuRBhNkgicBqAZQ/rKFLfiU+8n9BKb2r5aCtBF4TyyOeRLM1h13gcv/2Z93gpilCLLZIUYyzqZGUApkKzCVjMl1UCydqnAIdvCcSDtDwAFSYLkg6DWw1BlpZiIUZi0npV26r02qsv9G59z160mIlYq47RdBr1Qgm1Yg5DmQTCtJFtcxZmQKQmUAXu9pcIWIMGzLj6T9UFRQ4LEGRp9uDcMaHnswmBrPkMltYBoTiorhSJrgrIhIVKyge0zvW9Su29oe/F2bRHAXsA8C4sXyZ27IcdnPUqQK8S+Od8pz8s30//aqxvcYhdT5HTvOak+lQsl0zuqbR2WK9R26VtBYq2wFKHzzz92v/0J0/j//jCX6Ogip+dQo42cL5cRXJIW/f66WLYaiEEHJHrtenHsxZF4xEs5RYxOjKEbrMKj7xxJI3hcB2f+eD7vDTrQYpRaO1cjD561Lcn1CIrvjeiN07BeRDF5pgCd9qYBevXErGuJcPUKARimom8ZFcIt96819t5wSgdihk6fwVq5eB7w1rZqnBixENQuKQeOAZB8tZopejVtLpC96/2wMa4euaAOpKoCaNhZFmwmUyaeQvTjqwgRDvWiy6x5eAx5I+3Kd02d0E9KjqSBQayKpnT2BSGX1H7pPzJOValFfMnw+oEvTNnMa8PVA6RzbpTV5s5Xl2bv7BAW3Mx18ZwJoWj0wXrMaozWyVqx69+9XXs23fa9taYX6TvIMfapqEGcy764TuNe56kMpO5w9Y0Qt8ook82kNOphn1K4UMfusO78oo0W2E6chSDfQyHrOVI+gafAXjAngjwFHBAy3P/DpMCV6apCw3aCdppuqYvkV69F7SPb/fazVOoFY5iItPFWJrGQ0kfE6H4qObCnvqE1L3mJ3iZlltJ705WBG7taxzVHgvNNho0d0rlRYK3iHE2hRftWs8M5pheZqpbpIevKYJsbtmEt2Xq0DF1mng1cg6tpiLKuZV9rm4rGQOupSHTjDAN6wN/VZbE5MqvkE+gkaVRqXyRzISRp/bVnOYoRTszD3zhT57E977/NGo0vzZtvZQVcRj5Ek2UzCiS2WFq8bofjh/omyRVRu3yPz7CViB33NbHLcy8ojVy+OgHtxgW1EEqVeVMUr3jAHtW/V6D3pGSX1lD+uwaHG3LGaawCUcCuo1m9QxGeP2a3SF85uM3ItaZhVc9hTS91XCjhEalyFpLGzauyeK0j5jNvq0lWglmPxvWNA/weVPw/OB7OidAWIk6rRjt9WHUa22aDmwlqG2TiTL+239yIX7zt7fg6qu3IRyrMmcls+c00qYdajr0aJRurysrVUO9PNqOSc4pc+vxeKSn04k07WifcuI9dUFGCGJVaAEhSJXLq+OgP3ZQ5nKKpCrcV7GIAh5DMW2ETvOBWlerucc3hPHciw0C+If48ZMHkRq6AN3wBIrVmDlz+vhkrRUhs34mkgyHKmggjrMpSNNq1JFpjXr5NBJsrfKLr2LXzgxuv2W3Nz/HVoKVS510KlGl0UqWJ2a56QIpxBok7pGuD/BaMb8D5ISvhEToQMl202/Ny1o/lUaVxzpquOv2vd6NV+5ApLmEytIJTDJXw6mk7XxYLmoT6TGGxWQG4LImSlkN+N0kevAEoo3R81wFyMaEZw1kaMjpM2jqjNcX+t0Im3PiOjSJnDNHd1Hf05CJoX5RNqnuWCOAa8zS4FGgFrgFXMe2WpxhWbeU2MwaVwH67E9xNTpbHoJ/cmjYJq/LxNa6zedf7OILf/4NvPL6jI3ANemIi7U1gWar2ZRRzTUxk4LVyMfPQMu+7Pxc5Cqh9vEqIpOqYfP6KP7lH/yapyX+2sOtWmpQOWjGHB8hVjReRQvoTdFbGrE7m5YLLwhToBUF+yoo4y0KXF8VqlFsDU23Ck1hYS6Gr37j5e7jz+5HfHQLlhppLJY1QyqDdJrOQL1kmimIRxaz/gZdbxpP19H1LDDeZdrCNdmOVhRyrzIElSRgR2re1WtBJCEaIqSoiaNMdxhu1lkyW0U8EaaZEUO5QiOAzqVthdXUV/RlAxN+bQdAOauDzb3SpC40NfeuK81dl3bV9xejfFS9EgpDmlDPu3atT05TyaHTgEYEjRDj53OVGgGTDtHX0Cdwj+Kmmzbin/z6VejSLn7msZP48z/9GmKpDUiM78TR0zVEMxuZSwKXwfdNG6WNEGYcsbY79mUjaJL8/MhYFAWVaRDg9tmyxmmMD1XRqB7Br3/mbu/Omy5CtEFFQBNNs/rc96eJFt8ZDexuc6RJvd9Bufq/A1oulbdELuHnokDYOipCNbUZFvaIlgA1ytgyBc1aY+2sY/bEftrFCxhNxTCk77uVCnxJABYYFFfAAQXnq6VjtWsraS0RuHedIDtotur0milsatjx0WFMjo9ibvoE5k6fQHExR4XYoWNCAGpqYW0OyViJzWgJncY0ve4lVoJ5Oi2LfUbOuhjNZCD4ZLqotYqr/7RTc46ul6PpoglK8yzoRcLsDJLdefIipZfjewWWZ5VKQp9Co9lFZaEJQSpsTaW0uSJenNp2A149Avz5157Ftx5+BrXwGErtLA4dW8LI5DY+p6rpjBarKH6r16/8gyQA677S7Bzvfjebe88GVPxWQ7P0stkuDhx4Bu99z5X21dLC4jzNLuWbrQzNK6kfC5XvBYBdnVQmCns5v0lNrEDORavc98N38QQ13D3prsSwsNjA0FgCX/3mfnz56492E2O72ZCOYa7kIZEdQb264MDkOzJOE2sKoJOy2w1TtpWLK6ix/UJw6RrUED0yIfDY08R90kCD2a0qEPXTEhD6iEuzTGe0fAR79mRQLuRx/HANF+68GrVKh5o5Sidpjpq5gLHRSZw5c5oOlfo929i+dSeSNJVeeukFOotxVoZdOJMn0LIbUau3Wam7GI11MD+zn5q7iKmtWVvxkK/V0C7XUJ+dxzWXXM6KrW/J8TlN0AllmQWZXGnX/DOPzWadNjztY1aQbmcR1964DoXCNM7MFggggqabZXa0k3GWLWOc2Sbg+Z7elYzUteVk5UxCtQgOXJSPyckvB7YAJmu1WJ0GosR0m61rJEFnrk0HuJbD5Chw/PUf4nd/9QP45Ieu8HgLw8xngpVPfd+BgoOn1sSVQU/z9hDtys+Vq86Xl9PbBHHwOwh05X3m1TQEj0E8bBpt3Zf7RcGFUKnKLmS2ePHP/svz3W//8GWk2NTNF8JYv20HzsyddBmwmq8xPvmzMiOUKWdWWAH4cbwpEJN6qVkGZL/CGYidsK1PljaqPm4+lMnjvnsvQioew9M/OY2HHngeQ9kxbNg0hns+cAWGRjz80R9+yUD9kY/eiwsuyKDJBqVNU0EjWI//+DX86If7kRjahROlKMrlOi4czyI/cwBXXrYBuy5ZjwuvHIM6aNSjMESsvfyDp/HkDx/Bhz7wCUxs3Y6/eux5vHY0T9Tqo5IZApKyYJrbnSYrXJhangCMVBBNztNxqxFYMbQacbaESVtq5HVTzCWVgYaRlV+C14imU2AaSENaC2qipWx8RRKAWNeiTFsuP4sN6yZ4nMboRAJLxRlkh6Ks4M/gzpu30Iy4x7uAdU3qR18xiXUJYrVCDFdp0AR3W3nC8NYGcfB7OYiX/3rLpEh8IPTOHbNhc+ChUI39KPXXWIImN+oN++jMvXde6d143V7bcXN0mD59kc0wdawKxC29J1PABrCAV+lecuSe17OWBv3yj4MU3HfsxxFQAOyg4Pi7kNN344Ctm0dwxZ4UK2HV5k5sol2UyXRw+RUedu4ELtqTxT/69fdjagM1Nn2b07NN8/in1gGf/OQluOveG1CkRm+1jiMamWMJT+PCizL45Gf24I57xpAZIoCLLRRKLHDW21tvuxaXXX4BrrtxO665Fti8lahgcx2AUKymXN2ZGlOTr9BotVEqd9gydNHSNkfqc9Z92dm+3FTprQdC+SWZYUG8iF0PCMHlAyyQucgqeJgeDk2tRCLO1oRyoZlQr8zRHOwiN3sYOzeO4Bc+dI83QcWv16R+GLOFbbIlB1MqRT3c9sgvi2Xl6/IacP/td5NMEKKzo9OVRq2KkWQMJSqVizYDH/vIFd7e3ZtRXDrGTJfMblSTJt9IzwtsEqQcEWsGee18srIagN+YKGS69bawVQKnNq5XKtAXNTXcTiVEmy+JcLSLUycOYW7hBLWRK6x73n8dtW4R37n/Ufwv/+aP8JUv/Q2++52H8fTThy3kW29bT01do/26gOFMhV76Edz7wauxaztlwrC/9s3H8J/+8x/ib77xHfz5n91PsDTx6c9+FMNsoqfnGXeCZoCcY5Ly1pMAC1xgkJwEzuGR9Ugnp3ifWsJvzfpPS3p9Cq5KVOIAaL13/LJUBTAQo44q/Zr162j+zR1HJkkt65Vx5LWnEe/k8euf/YC3cyOQYWAUkTNNNEnYCkNhBcz4zgKwT6sqqD65t98yDSYiCOrsa66mn812jwkfz2YJhq5pYm2vunU9NdVHbve81hxa1Rk6Om3nrfvaWFkSeDV9U0tn1AydXYNF/TSck4KCWpV0T6OHDsj6re+LeEyTtvCSy6nvg2jouVxdImCSSPG6QJwdSuKhhx7Bgw8+h2o1jdOnK3j0kWfx/PMvIl92Q6xX7L0AyUgZ6XgJI8NNXHW1Pg0OPPDIPvzo8WdQLIWo4RJ45aUj+N53f4h2i968AidJ62pzGbe5ikbn6NSRA1lY80s7uVTQV/O1Kj1JYMbpLNKU4HWNpVpZ8AVjv1z0voVhMlH+XSvUB79KgAVFx01dhNFYlybfMVx04SbkF08QxEWMpKr42N1X4T1XJJGhCUW3wNYKxjX1k+FajwbDM1NC3a9+GViSV7Luk/vkp8vnwTt/RySBOJamlcExSmVxxaVh/O5vfcpr1RbNQek7F45MC4vVFAXCfpfIzbdQIbrKoolP9Mws2UqvmtGZ+ZNYR22UZIuiWwL3/gPH8eqrxwigDIazF2Akux21GjPnpWg+0DakvauNomOqALlZXHTBentXX2x9jkBPDa3HyORFSMY3M95xPPajZ/DsMy/aMzEGU6czGJZjZvlfgyzdbshazqRVSKti50kWtg/gHohJfu+DjslsBHVq46XFaYwNR+mYHsSdt1yBT3zwSk9fxKByZvWh08uKpq0dnPqS5AJ+e2X39t5+mzSokQlHG22SrSmsxpi3W28ex803XS7Xowdi1UxpHbVGg+xI2Rnkd5YU92o0OTWKZCqKaq2E+Vl9qszlYfpkFQuzIUyNXYZKIYtyKYl1EztpUxO0ReaYYAwRhN1Gk9qpi83rpqiVgQrvzS2UaKJM0KYdwesHlpCIb6CW34IjR2fRIXb0fTzNCguHWRPWzKuuC3zqBov67BzrkGxgClS8JqkZJ6vbTWOtavHsabsuEDsga2pmIhlFs1ZAPNLC7gs24Zc/c5cnwI6w3iT5XJwtRNRvSZdFyUriwqe2ZXIH+XzpTTz6Vul8o3ACM81WYtNIj5zmFj5095We+lXVX6rJI6FQhQWgfSwowJ8C9QTuF6i5N6p8Vnt4ibfm5meRIqoq1QIBPU7TQVPRdS+OoeF1qDIfQyPjPJ+01d6zp4tYXIB9mUnf7KuWyxgbGbEKnOV75UIT66emqN1amJ3NYcOGnShWtMA2ixPHFgz8WgUcqrSQIijXxiFl32tFBnl5mZwLx+p+c4syNe1SOwBR7nxfM+xs9iDfreRmMDUeQzLWQKM6j499+HaP9dq+eSc3UiOZTgPwaOzIwNtTQCvpXIlaTm8SxHp8kFfSyvvBM4PnzM8yDUwK856YGQyxxmbsyzusxXQcNg8D/+pffcyLZ44hFDuOZuMIa6n7kqcmxth8XP6TA3NWuD1aHv+bpWAqqGkeH8Q2l5ZyVmzpoTTSWdqaLNFWU/3DMWjaeKdTR6NZQjRZRaOTs7nH0USSpsQIn6EvMMZCjnewccNmau8W1o+vs6LrVMuYPXkE4VgdwxNJHDp6AJs20xSpxlGpxLBEpy7KpFw6vgFdan5rov28D3JAQddjrwvSIuGfgCkbmUwBO+A7eVlYEXEHrW6TNnkbiWgKbSqZdjVCh43mUJf2fKKCavE47r7jStx0zbj0P6lCOZTQpUdndYdlbKyuPKscjp0dyWeYsD7zdXuOas1/nn98Xk5nX/kpk2uiHBux1oap8fRF0OGYRwehg4mxDj77Gc14m8bUujgFVKIEa4RusJ3Ru0xB82nOjLqkGCs1seFa91ngDgpKiy7S+eTBmTr6LQeozscUBh+3Jt5Oeb2BOarlUqVBU2TRzIwkDWZ9kwIEfThUxe6LtyNf0DNVXHPd9awoXTSrAnID46m0YeDdIjmL2hWorTkcjCga9gjWAp1w2vlknU9lo3jtuUfxCx+9E++7bY9XJcAr9SI5T2c3T4nQAaUsBMyA30n6OwexkdU2sebYRixRYs3EirDmTmXCuOW6C3DLjdchN3+agmwg4pWpNbTKg+YFwWWbuazQIu8M9YHZA6lRPw43VZRaTEvqmY5gdpmpH163/d8C0gyiFRROxKhxtS1BBMMZtkAExzqq6XajRN+gjulT+1gpcohGGwTFAi66mK4ZfbXZpdM4NXeKoAjStDa53os+nxcxH9rjolEvU2lonncbaZrgti2Z9g+27VdLNtXyyr27cO8du7xJtpxhhm9domSZKsrxoMkSSHG5P0MRr9GSvBG9k6X9rpCyki+rGQN+7Zdv9XZuW2+fU0iEa/Sx88wAVRebubMKyID0TmWvJ3Zjbaook6KnTdsh2qmqfFE7t+vG+hgNfxO4wrkKTIUT7OAj8sIRnFnMoVRtYob2byFPe5fO0GgqC69ZsT7XsRF1P7YxMuphC+0r7QWhr5S2vCbSI6llQOjT28+7AY+V0pREq4IoW5JklC0kDfdqeYZ8GqOZLq/V8Y9/4x5vHU2kGvE+SnNwNJnCcDLLdGeXAfjdoLeZU71+Prw6raxxwe9BlimUpeerqbZq0X/5sx/1mtU5jA93rG+1RmHK9hyMpwdoFkAwv0JkWmEVgUpzDvJa6Q6CCkfjBGXYwGRGBttKrdkLh5LotCK2FX9SylejY7ynCT62Jk3psdYl7MwNPqLzockJtHg8ckJ5AX0C4OrLL0OoVcSJg89hOFGjM/gCxoa7uOvei3Bqeg7D1Hhd2tPRjPb0EQ2m20+75eXN02Ao6hmKshxGh1KUXR1zM0dZVYu030MYSTeQWzqM3/y1T9hHYGjdYIRpt0ENse+zyAZ3Q/supW+eBlN0NuvvzzRJAHGmUhOr5Qlv22hL/9mE0aEJFTEy5ARkS3J8fjfJDb96Nv+hwYqlTQqlfW1DFi3rIWgrNNm19EcAVme+htutCPmuKqaGg5v0/DSwI3DXO21WCO1P3MKhg2y+aVNef816fPje9+EDd9+MVFifvJrA7/+3n8XJE3OIprpYqLMST2RQlnH8LpL1xNAmXlqYtU1Ztm2eQDLWwuuvPMF0zuIfffo+XLbbLyNW3ASPDsAOxG4euSvHvjp5Z+lnHMSUBHOvROpLOVpMqFp+750XexdduI5aS/uXyVZtOSENaNFAa74TToR2ApKDFpgEtWYDdWOClawpj9okUbtPegRzIQeU2aw2tQ06rzmb2JkUsv3tXTYe4kaDtiabXk2FXFwq47GfPIO5M4AWT951x034xIfvwm//xmfwL/77XwZbZvyv//ZzDM9fFcKmSfZwb6eid4okx2Va3PkDbtlUw2zg4UwIl12yFXe8d8RT2cRZNurb11tsl3jU9Eqf3qBFkEzdhKO1+Nx07tB/BkhdW1pUr4RKWFpoqoUSv/mpO7z3Xbsb+VP72bwVqDE0cb5ETaeFm1RxKuA1JwYN0rlEsPyehM26QtB6qBGg0rbaSF4TyrXJSwPaW3gIxKJtWFjvpBCOZGhuRExzB6zv2OlTFhVWgGozxTQnMD6+kRp2DI898zK+/LUH8aWv70O52EV+oYxkJILnnz+A/8//9D8jQSRX6h6y0ZhtYh2sCH9XiOCTcohFwpgYzyJB82WG8s7njuGO2/bivruvpBtO7UvwqmzUUoYFYJWZBCUKjpLlamC2B9+ojM5N79DKjneLXOZsRhaPgnKdKEhENK8N2H9oEX/+9Ue6Tx9hYbeGKej1bnv9ThwNasQ4HQst7uzyHeuPfAONcDZonQa2ngmKSYVjk5EaJSRiWnZElcl7rS7j6cgm1l69jMcm8UtD6tO3NDNCI4xbxc1wNFG8SxMgRJR7VWrUDnLFBjau34ja/DzGU0nMTx9hSho290LzcjudFjLpGIrFGWzbsg7//A9+z7YK+MpfvYhvP/AqOonLaI5oTvFa5AOoV6FdngL5Ws+QaJl83Dv6alIsxjQ05+lstlEpHsf2dWF89IM3e1ddugntOk26NAHOIKSBNb9FX50VNnu9OQZ1Bscr1popbFK/Arp0qAI4GkzHarT8/hs9/TNAThASiHZq0161GvmPE8VbRzP40G3Xe9HuErZtSuDokWdsP+NOp4CRYe1+OW9axAC8Kin75ycC1+SxEPi8F02gzYrS6o5Ssw6bJqaPTvs4jYY3xOMEITjG+xkGT2eP5oZYXXEyPexLSvoIDUYZzjimJrbj4P7jVGdp2rmTuOvDH+VraZZ9FNnsMEFEMyVM7U/bZdeeK6xnQrjQV0/lTJ47D7z3hpV3BQUA15EtWqkwTwe0iVOnDmIkG8K1V1+EC7YOYzyhbyxrGhErLZWhbOG1eiIEXjOn3gV6k7n7uySnDWPUGloOX2/wdyiEi3ZtxMc+/D7MntyHG665BNXiHNIp2pdnprFuchR1elkacXM28+p8LnKF4hcqwSBHTZ8R0N4MXc1J0GRuc978KY4DbPMNBkBkmkjP2n0+729VWyp2MD66iU+EcO99l+OKKyfxm7/zC8R0GcXacczlD9H0mMOuK3fgihsvV73A/sPAwkKV5goNZYX3lkjpGoAAQesmogu8BKa/qDWe0leKNKe5juuv3oObrrvC2zypBWYdm/PhTAgXxCCZ1M4bvHo6IF/ePT43/RyYE2yWzXhQz4O2ZCKM2GxrJYQKLzYcxgwf+89/+Uz3tf2nEI6OYXaOblJsnM9QS0TTfFW7bEqaK+usDy7TPCvv8TVfEzmng0/YdMwQImzeI9Q+sr9V2PZ5XAG6q/m6PqDUH2hbrvJdAVbX/XDsmsj/3ajV0aKJMjYWwZ7d6/GJj2y3ynXs2DEcP+HmHqucbrj5BoyOpc1xfOyRgzjw2gJOnmrZzu1txT1AAo8j5ivI92D8vXPSQEulFdpKu63aZj61IeTESBul3BFcvJ2V67Pv87avA9sRmnftHOqlIlKpKURYiQPzQRO5LCwqDzv6AzxWoUmrmxOaN7MW2v3092j5758jEPOs07bJL5p+2KAmbrfYNEdoJ7P8crz+r//HP+zmCh4SmW2Ynq1hav1uNFta8yYBClyBEANaWzgCdgDiYETM9vMlIKz7iLZxb1dIkjS07aEswIp03e7zOQO2H7YBqn8uc1S9Ky3NsYjWCOY5fOLjt+GKy1LYuQEoMC7tiJOjs5hifVwqAk8/vYAffPcJ2sgJtjxx6KuktkPQAEn79YC8FoiD6wKT3ZMmptaNCMRUBOJuAY3CYezaNoyP3vte7/arxs1s0KcY452KwU4fYbd5ygZeOeIunkA7q1tRFGhkfSdc9E7ZxD93ILZd3A0UBE3bsy8O5ehIJZIxzLOgP/dv/qRbKKdRaaRoQ2awaetuLCxWKbgo2WXeiUy0UliDvxkvC1ZdWe6ctrBArAlH1vfZ4tMCasOBnYBYVRPrGJDu+Wnvg7mDcmkBIyNxLMwfo83pIRmvYceOSSQY3J49u2mPxlFu1PHSvldYIZs48PpxOnaTyC94iIUnEI+NWkswSAFgDMhrgVikewGYWPG0mWNIW8i2i6jW8mjX6ExOAb/0sTu866/chgwr3VCkg1hXO1qyNWQeBOJuKErQujD7mtgOPfoHEJOUVicnZsKaaFAfsFmjp3eUTty2kQl856kF/G///svd3ZfcihdePY2RsW2oy/YMsblfA8QSrhO4ZnHxvsmW8foAduYEn2U4tllhW6si1CjKbnTbxOp+7wMsRj6I/Z4KIwOx0u2bF0YdDA3FUczPYWoqy+OMbW96+NCrGBsfpeMWQrFSQzKTwDyfSWWS0GYu69ZvR7UUJsCHkVvU7qFBeKtRUOhBznn0QWx51Z5wItnAbD3a0KQdfQa3zEq7iF/66HW448ZLvM0Z5rrZwHC0Sy1MB1sTmxm2PuajlmgtEAdr6HogDnpDeuS/9/cPxBQ8pdIg6spegU1uFou1rn1g5mtf29f92/sfx/qNu3H4RJ7mBZ2mSIYhyXb1TIgKNUSNoDDV3NmRWmlVEKu/WRqL4OuBWGKTljX2QTwITtPEvjnBMIwMxAGQ3XOaYGNanU14o1pCKh4mCPSxiC4q1TpSySSq1MLlBm3T9WOo1CsYHxvDyROzdGBHaFLRveoIhGcXfNCMi3rng9pYf3nZVo3zutn4rHiVymmksx22DlGM0qn7n37/g16WweuDTKN8p96tml/gOjo1rKHv5CkNLsw31MR/30EsMFmS1W0l54PCb3h0jAgF99nZiHVB/fEXH+s+9pMXEU9vRqmuL4aOMyTtthNBncF1I7LhqD00j6Hllo4HjkhAZguTHagpOouXNvGAyPROIEPT9AK7yMAigLs8mODtns+9c57yfc0J8joMhywHx+LifcWtUwMbwzIgKEz//WAXJFEAVNdynE2DoA5IA0Jaizc2msDMzCHUG7PYtXMcRw49i9HRMP7nf/XfeJeMaX1cm5WeaROrr5zHYNaCDUWxPM4eeHHp6Mfrng+of3319PZp+Xsr6ecAxCpEgdgHCwsvSLIKSzZrh9DVsK1txUTOFYBTc0U88NAT3QcefQnRxEV8jkCOJOBFkuhoM2+GU67QnmUUMY/NcsTXrj3qA8ZSwaMDloRGsfaepYAFPh6XvR7QaoAyAIqWH7UY0k1MVxzumiqGRq8DLWZ0VpjLfwcglrzE+lxYcH4WsaVo00GrlOewY9sYhrNtvPriI7jh2ovwG7/2cY+mOcabXYJYvTGeD1QBXxObnEZVWyI6u5KsTGeQX0d/L0HsKNA+uu6cKtNQvK7tmNr0kmfoyKWySRw6UcRXvvZAd/9h7eiu7UyztI9pR2udGe3KmKYJenGb5qnd1APqA4YPW/j+OUkgc2B3gtXqEidD9zvoPgp+99J9FvBIPTArXHcMTJrBtzW708/yAK0Ib0X4akXkfgoo2slTdunZIFM8LcTjTczNHMTosL5eVcLiwiH849/6tHfPrRcgd6aIi0azZgMLwIPhBEdJX3R2+C5N/ev9/C6nVWSzjNZ6z9HPIYj5uwfivr2pS+7zBbQRqSFkpZZpkh46WsB/+I9f6lbq9J6jSXgxauKwRszCBHbYHxbW9qWysSUs14RbuAYMXyP34ncgtmU8PvWne/rXBu71wRUc1yIHXtHyFsGB+GxaEd4AiO1MIGY4way+1crZ8iFF0F3C+skECgunGVkB//yf/ZZ31e6UyS9LsQyxudIec2uBuNe7cRatzPOqGSGtfG4lrfWeo58LEK880gWzIzpujB600QzEvC4vvUlbt00Toc1rmvOrGWVPPXsKf/Pt73WPnpylozeMcEzbmCbQaNLB6iQIVC1nl7MVCIzgtdlhK9NAofnHgGxVyWrkV4L+uU89kPcLZ7BS9PdYoJYPsros0oGwjFb8HoxrDepVGDpzWzbH+UoBuy/ahvvuuMk+CK5vZ2QoDkkk3JKxpsEI54wKvMu07pog/unQzy2IDbzagMGSL43MU5a49iNTD4UArLm60sxzc1UMjaSgraBe2lfAo089013IVaiBYkgkh9FsRNCSneFr4oCcbUnugcIdAwAEtKoMBwHcO66kflw672ngQU1OWmYPB3QWUN/o92okrVrD7bdd4al7b8fGpM0HVj+DrF1j9Z5oYIfksaWz488UiIH/Fwn74rJcpVczAAAAAElFTkSuQmCC;" vertex="1" parent="1">
          <mxGeometry x="374.18" y="420" width="85.82" height="80" as="geometry" />
        </mxCell>
        <mxCell id="Kle5qxPMQ7towkut4Vvx-32" value="" style="endArrow=classic;startArrow=classic;html=1;rounded=0;entryX=0;entryY=0.5;entryDx=0;entryDy=0;exitX=1;exitY=0.5;exitDx=0;exitDy=0;" edge="1" parent="1" source="nJQdJeQsAaKc1UQKKqRn-8" target="nJQdJeQsAaKc1UQKKqRn-9">
          <mxGeometry width="50" height="50" relative="1" as="geometry">
            <mxPoint x="510" y="320" as="sourcePoint" />
            <mxPoint x="560" y="270" as="targetPoint" />
          </mxGeometry>
        </mxCell>
        <mxCell id="Kle5qxPMQ7towkut4Vvx-33" value="mTLS" style="edgeLabel;html=1;align=center;verticalAlign=middle;resizable=0;points=[];" vertex="1" connectable="0" parent="Kle5qxPMQ7towkut4Vvx-32">
          <mxGeometry x="0.0668" y="2" relative="1" as="geometry">
            <mxPoint y="-13" as="offset" />
          </mxGeometry>
        </mxCell>
        <mxCell id="Kle5qxPMQ7towkut4Vvx-34" value="" style="endArrow=classic;startArrow=classic;html=1;rounded=0;entryX=0;entryY=0.5;entryDx=0;entryDy=0;exitX=1;exitY=0.5;exitDx=0;exitDy=0;" edge="1" parent="1">
          <mxGeometry width="50" height="50" relative="1" as="geometry">
            <mxPoint x="290" y="274.83" as="sourcePoint" />
            <mxPoint x="330" y="274.83" as="targetPoint" />
          </mxGeometry>
        </mxCell>
        <mxCell id="Kle5qxPMQ7towkut4Vvx-35" value="mTLS" style="edgeLabel;html=1;align=center;verticalAlign=middle;resizable=0;points=[];" vertex="1" connectable="0" parent="Kle5qxPMQ7towkut4Vvx-34">
          <mxGeometry x="0.0668" y="2" relative="1" as="geometry">
            <mxPoint y="-13" as="offset" />
          </mxGeometry>
        </mxCell>
        <mxCell id="Kle5qxPMQ7towkut4Vvx-36" value="" style="endArrow=classic;html=1;rounded=0;entryX=0.5;entryY=1;entryDx=0;entryDy=0;entryPerimeter=0;exitX=1.021;exitY=0.6;exitDx=0;exitDy=0;exitPerimeter=0;" edge="1" parent="1" source="Kle5qxPMQ7towkut4Vvx-31" target="LkNdAKvkeDDcNydDBcF2-15">
          <mxGeometry width="50" height="50" relative="1" as="geometry">
            <mxPoint x="400" y="430" as="sourcePoint" />
            <mxPoint x="450" y="380" as="targetPoint" />
            <Array as="points">
              <mxPoint x="640" y="470" />
            </Array>
          </mxGeometry>
        </mxCell>
        <mxCell id="Kle5qxPMQ7towkut4Vvx-37" value="" style="endArrow=classic;html=1;rounded=0;entryX=0.5;entryY=1;entryDx=0;entryDy=0;entryPerimeter=0;exitX=0.012;exitY=0.622;exitDx=0;exitDy=0;exitPerimeter=0;" edge="1" parent="1" source="Kle5qxPMQ7towkut4Vvx-31" target="LkNdAKvkeDDcNydDBcF2-1">
          <mxGeometry width="50" height="50" relative="1" as="geometry">
            <mxPoint x="472" y="477" as="sourcePoint" />
            <mxPoint x="650" y="410" as="targetPoint" />
            <Array as="points">
              <mxPoint x="200" y="470" />
            </Array>
          </mxGeometry>
        </mxCell>
        <mxCell id="Kle5qxPMQ7towkut4Vvx-38" value="" style="endArrow=classic;html=1;rounded=0;entryX=0.5;entryY=1;entryDx=0;entryDy=0;entryPerimeter=0;exitX=0.529;exitY=0.003;exitDx=0;exitDy=0;exitPerimeter=0;" edge="1" parent="1" source="Kle5qxPMQ7towkut4Vvx-31" target="LkNdAKvkeDDcNydDBcF2-5">
          <mxGeometry width="50" height="50" relative="1" as="geometry">
            <mxPoint x="400" y="430" as="sourcePoint" />
            <mxPoint x="450" y="380" as="targetPoint" />
          </mxGeometry>
        </mxCell>
        <mxCell id="Kle5qxPMQ7towkut4Vvx-39" value="" style="endArrow=classic;html=1;rounded=0;entryX=0.533;entryY=1.032;entryDx=0;entryDy=0;entryPerimeter=0;exitX=0.502;exitY=-0.029;exitDx=0;exitDy=0;exitPerimeter=0;" edge="1" parent="1" source="Kle5qxPMQ7towkut4Vvx-3" target="Kle5qxPMQ7towkut4Vvx-31">
          <mxGeometry width="50" height="50" relative="1" as="geometry">
            <mxPoint x="310" y="620" as="sourcePoint" />
            <mxPoint x="360" y="570" as="targetPoint" />
          </mxGeometry>
        </mxCell>
        <mxCell id="Kle5qxPMQ7towkut4Vvx-40" value="" style="endArrow=classic;html=1;rounded=0;entryX=0.5;entryY=1;entryDx=0;entryDy=0;" edge="1" parent="1" source="LkNdAKvkeDDcNydDBcF2-20" target="Kle5qxPMQ7towkut4Vvx-15">
          <mxGeometry width="50" height="50" relative="1" as="geometry">
            <mxPoint x="380" y="790" as="sourcePoint" />
            <mxPoint x="400" y="560" as="targetPoint" />
            <Array as="points">
              <mxPoint x="-140" y="712" />
            </Array>
          </mxGeometry>
        </mxCell>
        <mxCell id="Kle5qxPMQ7towkut4Vvx-41" value="OAuth flow" style="edgeLabel;html=1;align=center;verticalAlign=middle;resizable=0;points=[];" vertex="1" connectable="0" parent="Kle5qxPMQ7towkut4Vvx-40">
          <mxGeometry x="-0.014" y="-2" relative="1" as="geometry">
            <mxPoint as="offset" />
          </mxGeometry>
        </mxCell>
        <mxCell id="Kle5qxPMQ7towkut4Vvx-43" value="" style="endArrow=classic;html=1;rounded=0;entryX=0.003;entryY=0.533;entryDx=0;entryDy=0;entryPerimeter=0;exitX=1;exitY=0.5;exitDx=0;exitDy=0;" edge="1" parent="1" source="Kle5qxPMQ7towkut4Vvx-19" target="nJQdJeQsAaKc1UQKKqRn-5">
          <mxGeometry width="50" height="50" relative="1" as="geometry">
            <mxPoint x="200" y="290" as="sourcePoint" />
            <mxPoint x="250" y="240" as="targetPoint" />
            <Array as="points">
              <mxPoint x="-40" y="64" />
              <mxPoint x="-40" y="360" />
            </Array>
          </mxGeometry>
        </mxCell>
        <mxCell id="Kle5qxPMQ7towkut4Vvx-45" value="" style="endArrow=classic;html=1;rounded=0;entryX=-0.001;entryY=0.529;entryDx=0;entryDy=0;entryPerimeter=0;exitX=1.004;exitY=0.441;exitDx=0;exitDy=0;exitPerimeter=0;" edge="1" parent="1" source="Kle5qxPMQ7towkut4Vvx-18" target="nJQdJeQsAaKc1UQKKqRn-5">
          <mxGeometry width="50" height="50" relative="1" as="geometry">
            <mxPoint x="160" y="250" as="sourcePoint" />
            <mxPoint x="210" y="200" as="targetPoint" />
            <Array as="points">
              <mxPoint x="-40" y="216" />
              <mxPoint x="-40" y="359" />
            </Array>
          </mxGeometry>
        </mxCell>
        <mxCell id="Kle5qxPMQ7towkut4Vvx-46" value="Get secrets" style="text;html=1;align=center;verticalAlign=middle;resizable=0;points=[];autosize=1;strokeColor=none;fillColor=none;" vertex="1" parent="1">
          <mxGeometry x="-80" y="40" width="80" height="30" as="geometry" />
        </mxCell>
        <mxCell id="Kle5qxPMQ7towkut4Vvx-48" value="Application Gateway &lt;br&gt;Ingress Controler" style="text;html=1;align=center;verticalAlign=middle;resizable=0;points=[];autosize=1;strokeColor=none;fillColor=none;" vertex="1" parent="1">
          <mxGeometry x="255" y="585" width="130" height="40" as="geometry" />
        </mxCell>
      </root>
    </mxGraphModel>
  </diagram>
</mxfile>
